<?xml version="1.0" encoding="UTF-8" standalone="no"?>
<!DOCTYPE svg PUBLIC "-//W3C//DTD SVG 1.1//EN"
 "http://www.w3.org/Graphics/SVG/1.1/DTD/svg11.dtd">
<!-- Generated by graphviz version 2.40.1 (20161225.0304)
 -->
<!-- Title: models_diagram Pages: 1 -->
<svg width="1013pt" height="1462pt"
 viewBox="0.00 0.00 1013.28 1461.78" xmlns="http://www.w3.org/2000/svg" xmlns:xlink="http://www.w3.org/1999/xlink">
<g id="graph0" class="graph" transform="scale(1 1) rotate(0) translate(36 1425.7833)">
<title>models_diagram</title>
<polygon fill="#ffffff" stroke="transparent" points="-36,36 -36,-1425.7833 977.2774,-1425.7833 977.2774,36 -36,36"/>
<!-- AnswerModel -->
<g id="node1" class="node">
<title>AnswerModel</title>
<polygon fill="#add8e6" stroke="transparent" points="841.2774,-1046.7833 841.2774,-1068.7833 941.2774,-1068.7833 941.2774,-1046.7833 841.2774,-1046.7833"/>
<polygon fill="none" stroke="#000000" points="841.2774,-1046.7833 841.2774,-1068.7833 941.2774,-1068.7833 941.2774,-1046.7833 841.2774,-1046.7833"/>
<text text-anchor="start" x="862.6764" y="-1055.7833" font-family="Times,serif" font-weight="bold" font-size="10.00" fill="#000000">AnswerModel</text>
<polygon fill="none" stroke="#000000" points="841.2774,-1024.7833 841.2774,-1046.7833 941.2774,-1046.7833 941.2774,-1024.7833 841.2774,-1024.7833"/>
<text text-anchor="start" x="846.2774" y="-1033.7833" font-family="Times,serif" text-decoration="underline" font-size="10.00" fill="#000000">id</text>
<text text-anchor="start" x="854.0564" y="-1033.7833" font-family="Times,serif" font-size="10.00" fill="#000000">: NUMBER</text>
<polygon fill="none" stroke="#000000" points="841.2774,-1002.7833 841.2774,-1024.7833 941.2774,-1024.7833 941.2774,-1002.7833 841.2774,-1002.7833"/>
<text text-anchor="start" x="846.1434" y="-1011.7833" font-family="Times,serif" font-style="italic" text-decoration="underline" font-size="10.00" fill="#000000">questionId</text>
<text text-anchor="start" x="888.3584" y="-1011.7833" font-family="Times,serif" font-size="10.00" fill="#000000">: NUMBER</text>
<polygon fill="none" stroke="#000000" points="841.2774,-980.7833 841.2774,-1002.7833 941.2774,-1002.7833 941.2774,-980.7833 841.2774,-980.7833"/>
<text text-anchor="start" x="846.2774" y="-988.7833" font-family="Times,serif" font-size="10.00" fill="#000000">text: STRING</text>
<polygon fill="none" stroke="#000000" points="841.2774,-958.7833 841.2774,-980.7833 941.2774,-980.7833 941.2774,-958.7833 841.2774,-958.7833"/>
<text text-anchor="start" x="846.2774" y="-966.7833" font-family="Times,serif" font-size="10.00" fill="#000000">status: STRING</text>
<polygon fill="none" stroke="#000000" points="841.2774,-936.7833 841.2774,-958.7833 941.2774,-958.7833 941.2774,-936.7833 841.2774,-936.7833"/>
<text text-anchor="start" x="846.2774" y="-944.7833" font-family="Times,serif" font-size="10.00" fill="#000000">userId: NUMBER</text>
<polygon fill="none" stroke="#000000" points="841.2774,-914.7833 841.2774,-936.7833 941.2774,-936.7833 941.2774,-914.7833 841.2774,-914.7833"/>
<text text-anchor="start" x="846.2774" y="-922.7833" font-family="Times,serif" font-size="10.00" fill="#000000">createdAt: DATE</text>
<polygon fill="none" stroke="#000000" points="841.2774,-892.7833 841.2774,-914.7833 941.2774,-914.7833 941.2774,-892.7833 841.2774,-892.7833"/>
<text text-anchor="start" x="846.2774" y="-900.7833" font-family="Times,serif" font-size="10.00" fill="#000000">updatedAt: DATE</text>
</g>
<!-- AssessmentModel -->
<g id="node2" class="node">
<title>AssessmentModel</title>
<polygon fill="#add8e6" stroke="transparent" points="210.7391,-841.7833 210.7391,-863.7833 325.7391,-863.7833 325.7391,-841.7833 210.7391,-841.7833"/>
<polygon fill="none" stroke="#000000" points="210.7391,-841.7833 210.7391,-863.7833 325.7391,-863.7833 325.7391,-841.7833 210.7391,-841.7833"/>
<text text-anchor="start" x="231.5801" y="-850.7833" font-family="Times,serif" font-weight="bold" font-size="10.00" fill="#000000">AssessmentModel</text>
<polygon fill="none" stroke="#000000" points="210.7391,-819.7833 210.7391,-841.7833 325.7391,-841.7833 325.7391,-819.7833 210.7391,-819.7833"/>
<text text-anchor="start" x="215.7391" y="-828.7833" font-family="Times,serif" text-decoration="underline" font-size="10.00" fill="#000000">id</text>
<text text-anchor="start" x="223.5181" y="-828.7833" font-family="Times,serif" font-size="10.00" fill="#000000">: NUMBER</text>
<polygon fill="none" stroke="#000000" points="210.7391,-797.7833 210.7391,-819.7833 325.7391,-819.7833 325.7391,-797.7833 210.7391,-797.7833"/>
<text text-anchor="start" x="215.3316" y="-806.7833" font-family="Times,serif" font-style="italic" text-decoration="underline" font-size="10.00" fill="#000000">organisationId</text>
<text text-anchor="start" x="273.0936" y="-806.7833" font-family="Times,serif" font-size="10.00" fill="#000000">: NUMBER</text>
<polygon fill="none" stroke="#000000" points="210.7391,-775.7833 210.7391,-797.7833 325.7391,-797.7833 325.7391,-775.7833 210.7391,-775.7833"/>
<text text-anchor="start" x="215.7391" y="-784.7833" font-family="Times,serif" font-style="italic" text-decoration="underline" font-size="10.00" fill="#000000">createdBy</text>
<text text-anchor="start" x="256.2721" y="-784.7833" font-family="Times,serif" font-size="10.00" fill="#000000">: NUMBER</text>
<polygon fill="none" stroke="#000000" points="210.7391,-753.7833 210.7391,-775.7833 325.7391,-775.7833 325.7391,-753.7833 210.7391,-753.7833"/>
<text text-anchor="start" x="215.7391" y="-762.7833" font-family="Times,serif" font-style="italic" text-decoration="underline" font-size="10.00" fill="#000000">templateId</text>
<text text-anchor="start" x="258.5011" y="-762.7833" font-family="Times,serif" font-size="10.00" fill="#000000">: NUMBER</text>
<polygon fill="none" stroke="#000000" points="210.7391,-731.7833 210.7391,-753.7833 325.7391,-753.7833 325.7391,-731.7833 210.7391,-731.7833"/>
<text text-anchor="start" x="215.7391" y="-739.7833" font-family="Times,serif" font-size="10.00" fill="#000000">name: STRING</text>
<polygon fill="none" stroke="#000000" points="210.7391,-709.7833 210.7391,-731.7833 325.7391,-731.7833 325.7391,-709.7833 210.7391,-709.7833"/>
<text text-anchor="start" x="215.7391" y="-717.7833" font-family="Times,serif" font-size="10.00" fill="#000000">status: STRING</text>
<polygon fill="none" stroke="#000000" points="210.7391,-687.7833 210.7391,-709.7833 325.7391,-709.7833 325.7391,-687.7833 210.7391,-687.7833"/>
<text text-anchor="start" x="215.7391" y="-695.7833" font-family="Times,serif" font-size="10.00" fill="#000000">createdAt: DATE</text>
<polygon fill="none" stroke="#000000" points="210.7391,-665.7833 210.7391,-687.7833 325.7391,-687.7833 325.7391,-665.7833 210.7391,-665.7833"/>
<text text-anchor="start" x="215.7391" y="-673.7833" font-family="Times,serif" font-size="10.00" fill="#000000">updatedAt: DATE</text>
</g>
<!-- GroupModel -->
<g id="node5" class="node">
<title>GroupModel</title>
<polygon fill="#add8e6" stroke="transparent" points="467.0262,-983.2215 467.0262,-1005.2215 577.0262,-1005.2215 577.0262,-983.2215 467.0262,-983.2215"/>
<polygon fill="none" stroke="#000000" points="467.0262,-983.2215 467.0262,-1005.2215 577.0262,-1005.2215 577.0262,-983.2215 467.0262,-983.2215"/>
<text text-anchor="start" x="496.1987" y="-992.2215" font-family="Times,serif" font-weight="bold" font-size="10.00" fill="#000000">GroupModel</text>
<polygon fill="none" stroke="#000000" points="467.0262,-961.2215 467.0262,-983.2215 577.0262,-983.2215 577.0262,-961.2215 467.0262,-961.2215"/>
<text text-anchor="start" x="472.0262" y="-970.2215" font-family="Times,serif" text-decoration="underline" font-size="10.00" fill="#000000">id</text>
<text text-anchor="start" x="479.8052" y="-970.2215" font-family="Times,serif" font-size="10.00" fill="#000000">: NUMBER</text>
<polygon fill="none" stroke="#000000" points="467.0262,-939.2215 467.0262,-961.2215 577.0262,-961.2215 577.0262,-939.2215 467.0262,-939.2215"/>
<text text-anchor="start" x="471.6197" y="-948.2215" font-family="Times,serif" font-style="italic" text-decoration="underline" font-size="10.00" fill="#000000">assessmentId</text>
<text text-anchor="start" x="524.3797" y="-948.2215" font-family="Times,serif" font-size="10.00" fill="#000000">: NUMBER</text>
<polygon fill="none" stroke="#000000" points="467.0262,-917.2215 467.0262,-939.2215 577.0262,-939.2215 577.0262,-917.2215 467.0262,-917.2215"/>
<text text-anchor="start" x="472.0262" y="-925.2215" font-family="Times,serif" font-size="10.00" fill="#000000">text: STRING</text>
<polygon fill="none" stroke="#000000" points="467.0262,-895.2215 467.0262,-917.2215 577.0262,-917.2215 577.0262,-895.2215 467.0262,-895.2215"/>
<text text-anchor="start" x="472.0262" y="-903.2215" font-family="Times,serif" font-size="10.00" fill="#000000">userId: NUMBER</text>
<polygon fill="none" stroke="#000000" points="467.0262,-873.2215 467.0262,-895.2215 577.0262,-895.2215 577.0262,-873.2215 467.0262,-873.2215"/>
<text text-anchor="start" x="472.0262" y="-881.2215" font-family="Times,serif" font-size="10.00" fill="#000000">status: STRING</text>
<polygon fill="none" stroke="#000000" points="467.0262,-851.2215 467.0262,-873.2215 577.0262,-873.2215 577.0262,-851.2215 467.0262,-851.2215"/>
<text text-anchor="start" x="472.0262" y="-859.2215" font-family="Times,serif" font-size="10.00" fill="#000000">createdAt: DATE</text>
<polygon fill="none" stroke="#000000" points="467.0262,-829.2215 467.0262,-851.2215 577.0262,-851.2215 577.0262,-829.2215 467.0262,-829.2215"/>
<text text-anchor="start" x="472.0262" y="-837.2215" font-family="Times,serif" font-size="10.00" fill="#000000">updatedAt: DATE</text>
</g>
<!-- AssessmentModel&#45;&gt;GroupModel -->
<g id="edge5" class="edge">
<title>AssessmentModel&#45;&gt;GroupModel</title>
<path fill="none" stroke="#00cd00" stroke-width=".75" d="M325.4408,-799.3739C366.0521,-823.7193 420.2985,-856.2385 461.5192,-880.9492"/>
<polygon fill="#00cd00" stroke="#00cd00" stroke-width=".75" points="461.5884,-880.9907 465.3463,-886.3915 464.1615,-882.5332 466.7346,-884.0757 466.7346,-884.0757 466.7346,-884.0757 464.1615,-882.5332 468.1229,-881.7599 461.5884,-880.9907 461.5884,-880.9907"/>
</g>
<!-- CountryModel -->
<g id="node3" class="node">
<title>CountryModel</title>
<polygon fill="#add8e6" stroke="transparent" points="6.8891,-1072.0342 6.8891,-1094.0342 89.8891,-1094.0342 89.8891,-1072.0342 6.8891,-1072.0342"/>
<polygon fill="none" stroke="#000000" points="6.8891,-1072.0342 6.8891,-1094.0342 89.8891,-1094.0342 89.8891,-1072.0342 6.8891,-1072.0342"/>
<text text-anchor="start" x="18.9471" y="-1081.0342" font-family="Times,serif" font-weight="bold" font-size="10.00" fill="#000000">CountryModel</text>
<polygon fill="none" stroke="#000000" points="6.8891,-1050.0342 6.8891,-1072.0342 89.8891,-1072.0342 89.8891,-1050.0342 6.8891,-1050.0342"/>
<text text-anchor="start" x="11.8891" y="-1059.0342" font-family="Times,serif" text-decoration="underline" font-size="10.00" fill="#000000">id</text>
<text text-anchor="start" x="19.6681" y="-1059.0342" font-family="Times,serif" font-size="10.00" fill="#000000">: NUMBER</text>
<polygon fill="none" stroke="#000000" points="6.8891,-1028.0342 6.8891,-1050.0342 89.8891,-1050.0342 89.8891,-1028.0342 6.8891,-1028.0342"/>
<text text-anchor="start" x="11.8891" y="-1036.0342" font-family="Times,serif" font-size="10.00" fill="#000000">name: STRING</text>
<polygon fill="none" stroke="#000000" points="6.8891,-1006.0342 6.8891,-1028.0342 89.8891,-1028.0342 89.8891,-1006.0342 6.8891,-1006.0342"/>
<text text-anchor="start" x="11.8891" y="-1014.0342" font-family="Times,serif" font-size="10.00" fill="#000000">code: STRING</text>
<polygon fill="none" stroke="#000000" points="6.8891,-984.0342 6.8891,-1006.0342 89.8891,-1006.0342 89.8891,-984.0342 6.8891,-984.0342"/>
<text text-anchor="start" x="11.8891" y="-992.0342" font-family="Times,serif" font-size="10.00" fill="#000000">createdAt: DATE</text>
<polygon fill="none" stroke="#000000" points="6.8891,-962.0342 6.8891,-984.0342 89.8891,-984.0342 89.8891,-962.0342 6.8891,-962.0342"/>
<text text-anchor="start" x="11.5941" y="-970.0342" font-family="Times,serif" font-size="10.00" fill="#000000">updatedAt: DATE</text>
</g>
<!-- FileModel -->
<g id="node4" class="node">
<title>FileModel</title>
<polygon fill="#add8e6" stroke="transparent" points="339.4467,-1367.7833 339.4467,-1389.7833 445.4467,-1389.7833 445.4467,-1367.7833 339.4467,-1367.7833"/>
<polygon fill="none" stroke="#000000" points="339.4467,-1367.7833 339.4467,-1389.7833 445.4467,-1389.7833 445.4467,-1367.7833 339.4467,-1367.7833"/>
<text text-anchor="start" x="371.6152" y="-1376.7833" font-family="Times,serif" font-weight="bold" font-size="10.00" fill="#000000">FileModel</text>
<polygon fill="none" stroke="#000000" points="339.4467,-1345.7833 339.4467,-1367.7833 445.4467,-1367.7833 445.4467,-1345.7833 339.4467,-1345.7833"/>
<text text-anchor="start" x="344.4467" y="-1354.7833" font-family="Times,serif" text-decoration="underline" font-size="10.00" fill="#000000">id</text>
<text text-anchor="start" x="352.2257" y="-1354.7833" font-family="Times,serif" font-size="10.00" fill="#000000">: NUMBER</text>
<polygon fill="none" stroke="#000000" points="339.4467,-1323.7833 339.4467,-1345.7833 445.4467,-1345.7833 445.4467,-1323.7833 339.4467,-1323.7833"/>
<text text-anchor="start" x="344.4467" y="-1332.7833" font-family="Times,serif" font-style="italic" text-decoration="underline" font-size="10.00" fill="#000000">ownerId</text>
<text text-anchor="start" x="377.7627" y="-1332.7833" font-family="Times,serif" font-size="10.00" fill="#000000">: NUMBER</text>
<polygon fill="none" stroke="#000000" points="339.4467,-1301.7833 339.4467,-1323.7833 445.4467,-1323.7833 445.4467,-1301.7833 339.4467,-1301.7833"/>
<text text-anchor="start" x="344.4467" y="-1309.7833" font-family="Times,serif" font-size="10.00" fill="#000000">owner: STRING</text>
<polygon fill="none" stroke="#000000" points="339.4467,-1279.7833 339.4467,-1301.7833 445.4467,-1301.7833 445.4467,-1279.7833 339.4467,-1279.7833"/>
<text text-anchor="start" x="344.2647" y="-1287.7833" font-family="Times,serif" font-size="10.00" fill="#000000">originalName: STRING</text>
<polygon fill="none" stroke="#000000" points="339.4467,-1257.7833 339.4467,-1279.7833 445.4467,-1279.7833 445.4467,-1257.7833 339.4467,-1257.7833"/>
<text text-anchor="start" x="344.4467" y="-1265.7833" font-family="Times,serif" font-size="10.00" fill="#000000">name: STRING</text>
<polygon fill="none" stroke="#000000" points="339.4467,-1235.7833 339.4467,-1257.7833 445.4467,-1257.7833 445.4467,-1235.7833 339.4467,-1235.7833"/>
<text text-anchor="start" x="344.4467" y="-1243.7833" font-family="Times,serif" font-size="10.00" fill="#000000">extension: STRING</text>
<polygon fill="none" stroke="#000000" points="339.4467,-1213.7833 339.4467,-1235.7833 445.4467,-1235.7833 445.4467,-1213.7833 339.4467,-1213.7833"/>
<text text-anchor="start" x="344.4467" y="-1221.7833" font-family="Times,serif" font-size="10.00" fill="#000000">mime: STRING</text>
<polygon fill="none" stroke="#000000" points="339.4467,-1191.7833 339.4467,-1213.7833 445.4467,-1213.7833 445.4467,-1191.7833 339.4467,-1191.7833"/>
<text text-anchor="start" x="344.4467" y="-1199.7833" font-family="Times,serif" font-size="10.00" fill="#000000">status: STRING</text>
<polygon fill="none" stroke="#000000" points="339.4467,-1169.7833 339.4467,-1191.7833 445.4467,-1191.7833 445.4467,-1169.7833 339.4467,-1169.7833"/>
<text text-anchor="start" x="344.4467" y="-1177.7833" font-family="Times,serif" font-size="10.00" fill="#000000">createdAt: DATE</text>
<polygon fill="none" stroke="#000000" points="339.4467,-1147.7833 339.4467,-1169.7833 445.4467,-1169.7833 445.4467,-1147.7833 339.4467,-1147.7833"/>
<text text-anchor="start" x="344.4467" y="-1155.7833" font-family="Times,serif" font-size="10.00" fill="#000000">updatedAt: DATE</text>
</g>
<!-- QuestionModel -->
<g id="node8" class="node">
<title>QuestionModel</title>
<polygon fill="#add8e6" stroke="transparent" points="634.7721,-1253.9705 634.7721,-1275.9705 723.7721,-1275.9705 723.7721,-1253.9705 634.7721,-1253.9705"/>
<polygon fill="none" stroke="#000000" points="634.7721,-1253.9705 634.7721,-1275.9705 723.7721,-1275.9705 723.7721,-1253.9705 634.7721,-1253.9705"/>
<text text-anchor="start" x="648.1661" y="-1262.9705" font-family="Times,serif" font-weight="bold" font-size="10.00" fill="#000000">QuestionModel</text>
<polygon fill="none" stroke="#000000" points="634.7721,-1231.9705 634.7721,-1253.9705 723.7721,-1253.9705 723.7721,-1231.9705 634.7721,-1231.9705"/>
<text text-anchor="start" x="639.7721" y="-1240.9705" font-family="Times,serif" text-decoration="underline" font-size="10.00" fill="#000000">id</text>
<text text-anchor="start" x="647.5511" y="-1240.9705" font-family="Times,serif" font-size="10.00" fill="#000000">: NUMBER</text>
<polygon fill="none" stroke="#000000" points="634.7721,-1209.9705 634.7721,-1231.9705 723.7721,-1231.9705 723.7721,-1209.9705 634.7721,-1209.9705"/>
<text text-anchor="start" x="639.4166" y="-1218.9705" font-family="Times,serif" font-style="italic" text-decoration="underline" font-size="10.00" fill="#000000">groupId</text>
<text text-anchor="start" x="671.0746" y="-1218.9705" font-family="Times,serif" font-size="10.00" fill="#000000">: NUMBER</text>
<polygon fill="none" stroke="#000000" points="634.7721,-1187.9705 634.7721,-1209.9705 723.7721,-1209.9705 723.7721,-1187.9705 634.7721,-1187.9705"/>
<text text-anchor="start" x="639.7721" y="-1195.9705" font-family="Times,serif" font-size="10.00" fill="#000000">text: STRING</text>
<polygon fill="none" stroke="#000000" points="634.7721,-1165.9705 634.7721,-1187.9705 723.7721,-1187.9705 723.7721,-1165.9705 634.7721,-1165.9705"/>
<text text-anchor="start" x="639.7721" y="-1173.9705" font-family="Times,serif" font-size="10.00" fill="#000000">userId: NUMBER</text>
<polygon fill="none" stroke="#000000" points="634.7721,-1143.9705 634.7721,-1165.9705 723.7721,-1165.9705 723.7721,-1143.9705 634.7721,-1143.9705"/>
<text text-anchor="start" x="639.7721" y="-1151.9705" font-family="Times,serif" font-size="10.00" fill="#000000">status: STRING</text>
<polygon fill="none" stroke="#000000" points="634.7721,-1121.9705 634.7721,-1143.9705 723.7721,-1143.9705 723.7721,-1121.9705 634.7721,-1121.9705"/>
<text text-anchor="start" x="639.7721" y="-1129.9705" font-family="Times,serif" font-size="10.00" fill="#000000">createdAt: DATE</text>
<polygon fill="none" stroke="#000000" points="634.7721,-1099.9705 634.7721,-1121.9705 723.7721,-1121.9705 723.7721,-1099.9705 634.7721,-1099.9705"/>
<text text-anchor="start" x="639.7721" y="-1107.9705" font-family="Times,serif" font-size="10.00" fill="#000000">updatedAt: DATE</text>
</g>
<!-- GroupModel&#45;&gt;QuestionModel -->
<g id="edge6" class="edge">
<title>GroupModel&#45;&gt;QuestionModel</title>
<path fill="none" stroke="#00cd00" stroke-width=".75" d="M573.1338,-1005.5002C591.7135,-1037.5932 612.6287,-1073.7202 630.9166,-1105.3091"/>
<polygon fill="#00cd00" stroke="#00cd00" stroke-width=".75" points="631.0569,-1105.5516 631.7265,-1112.097 632.5601,-1108.1479 634.0632,-1110.7442 634.0632,-1110.7442 634.0632,-1110.7442 632.5601,-1108.1479 636.3998,-1109.3914 631.0569,-1105.5516 631.0569,-1105.5516"/>
</g>
<!-- IndustryModel -->
<g id="node6" class="node">
<title>IndustryModel</title>
<polygon fill="#add8e6" stroke="transparent" points=".5,-397.0375 .5,-419.0375 83.5,-419.0375 83.5,-397.0375 .5,-397.0375"/>
<polygon fill="none" stroke="#000000" points=".5,-397.0375 .5,-419.0375 83.5,-419.0375 83.5,-397.0375 .5,-397.0375"/>
<text text-anchor="start" x="12.2835" y="-406.0375" font-family="Times,serif" font-weight="bold" font-size="10.00" fill="#000000">IndustryModel</text>
<polygon fill="none" stroke="#000000" points=".5,-375.0375 .5,-397.0375 83.5,-397.0375 83.5,-375.0375 .5,-375.0375"/>
<text text-anchor="start" x="5.5" y="-384.0375" font-family="Times,serif" text-decoration="underline" font-size="10.00" fill="#000000">id</text>
<text text-anchor="start" x="13.279" y="-384.0375" font-family="Times,serif" font-size="10.00" fill="#000000">: NUMBER</text>
<polygon fill="none" stroke="#000000" points=".5,-353.0375 .5,-375.0375 83.5,-375.0375 83.5,-353.0375 .5,-353.0375"/>
<text text-anchor="start" x="5.5" y="-361.0375" font-family="Times,serif" font-size="10.00" fill="#000000">name: STRING</text>
<polygon fill="none" stroke="#000000" points=".5,-331.0375 .5,-353.0375 83.5,-353.0375 83.5,-331.0375 .5,-331.0375"/>
<text text-anchor="start" x="5.5" y="-339.0375" font-family="Times,serif" font-size="10.00" fill="#000000">createdAt: DATE</text>
<polygon fill="none" stroke="#000000" points=".5,-309.0375 .5,-331.0375 83.5,-331.0375 83.5,-309.0375 .5,-309.0375"/>
<text text-anchor="start" x="5.205" y="-317.0375" font-family="Times,serif" font-size="10.00" fill="#000000">updatedAt: DATE</text>
</g>
<!-- OrganisationModel -->
<g id="node7" class="node">
<title>OrganisationModel</title>
<polygon fill="#add8e6" stroke="transparent" points="26.2984,-840.5133 26.2984,-862.5133 156.2984,-862.5133 156.2984,-840.5133 26.2984,-840.5133"/>
<polygon fill="none" stroke="#000000" points="26.2984,-840.5133 26.2984,-862.5133 156.2984,-862.5133 156.2984,-840.5133 26.2984,-840.5133"/>
<text text-anchor="start" x="52.4189" y="-849.5133" font-family="Times,serif" font-weight="bold" font-size="10.00" fill="#000000">OrganisationModel</text>
<polygon fill="none" stroke="#000000" points="26.2984,-818.5133 26.2984,-840.5133 156.2984,-840.5133 156.2984,-818.5133 26.2984,-818.5133"/>
<text text-anchor="start" x="31.2984" y="-827.5133" font-family="Times,serif" text-decoration="underline" font-size="10.00" fill="#000000">id</text>
<text text-anchor="start" x="39.0774" y="-827.5133" font-family="Times,serif" font-size="10.00" fill="#000000">: NUMBER</text>
<polygon fill="none" stroke="#000000" points="26.2984,-796.5133 26.2984,-818.5133 156.2984,-818.5133 156.2984,-796.5133 26.2984,-796.5133"/>
<text text-anchor="start" x="31.2984" y="-804.5133" font-family="Times,serif" font-size="10.00" fill="#000000">name: STRING</text>
<polygon fill="none" stroke="#000000" points="26.2984,-774.5133 26.2984,-796.5133 156.2984,-796.5133 156.2984,-774.5133 26.2984,-774.5133"/>
<text text-anchor="start" x="31.2984" y="-782.5133" font-family="Times,serif" font-size="10.00" fill="#000000">website: STRING</text>
<polygon fill="none" stroke="#000000" points="26.2984,-752.5133 26.2984,-774.5133 156.2984,-774.5133 156.2984,-752.5133 26.2984,-752.5133"/>
<text text-anchor="start" x="31.2984" y="-760.5133" font-family="Times,serif" font-size="10.00" fill="#000000">entityType: STRING</text>
<polygon fill="none" stroke="#000000" points="26.2984,-730.5133 26.2984,-752.5133 156.2984,-752.5133 156.2984,-730.5133 26.2984,-730.5133"/>
<text text-anchor="start" x="31.1779" y="-738.5133" font-family="Times,serif" font-size="10.00" fill="#000000">registeredNumber: NUMBER</text>
<polygon fill="none" stroke="#000000" points="26.2984,-708.5133 26.2984,-730.5133 156.2984,-730.5133 156.2984,-708.5133 26.2984,-708.5133"/>
<text text-anchor="start" x="31.2984" y="-716.5133" font-family="Times,serif" font-size="10.00" fill="#000000">street: STRING</text>
<polygon fill="none" stroke="#000000" points="26.2984,-686.5133 26.2984,-708.5133 156.2984,-708.5133 156.2984,-686.5133 26.2984,-686.5133"/>
<text text-anchor="start" x="31.2984" y="-694.5133" font-family="Times,serif" font-size="10.00" fill="#000000">cityOrTown: STRING</text>
<polygon fill="none" stroke="#000000" points="26.2984,-664.5133 26.2984,-686.5133 156.2984,-686.5133 156.2984,-664.5133 26.2984,-664.5133"/>
<text text-anchor="start" x="31.2984" y="-672.5133" font-family="Times,serif" font-size="10.00" fill="#000000">countryOrState: STRING</text>
<polygon fill="none" stroke="#000000" points="26.2984,-642.5133 26.2984,-664.5133 156.2984,-664.5133 156.2984,-642.5133 26.2984,-642.5133"/>
<text text-anchor="start" x="31.2984" y="-650.5133" font-family="Times,serif" font-size="10.00" fill="#000000">postCode: NUMBER</text>
<polygon fill="none" stroke="#000000" points="26.2984,-620.5133 26.2984,-642.5133 156.2984,-642.5133 156.2984,-620.5133 26.2984,-620.5133"/>
<text text-anchor="start" x="31.2984" y="-628.5133" font-family="Times,serif" font-size="10.00" fill="#000000">createdBy: NUMBER</text>
<polygon fill="none" stroke="#000000" points="26.2984,-598.5133 26.2984,-620.5133 156.2984,-620.5133 156.2984,-598.5133 26.2984,-598.5133"/>
<text text-anchor="start" x="31.2984" y="-606.5133" font-family="Times,serif" font-size="10.00" fill="#000000">size: STRING</text>
<polygon fill="none" stroke="#000000" points="26.2984,-576.5133 26.2984,-598.5133 156.2984,-598.5133 156.2984,-576.5133 26.2984,-576.5133"/>
<text text-anchor="start" x="31.2984" y="-584.5133" font-family="Times,serif" font-size="10.00" fill="#000000">status: STRING</text>
<polygon fill="none" stroke="#000000" points="26.2984,-554.5133 26.2984,-576.5133 156.2984,-576.5133 156.2984,-554.5133 26.2984,-554.5133"/>
<text text-anchor="start" x="31.2984" y="-563.5133" font-family="Times,serif" font-style="italic" text-decoration="underline" font-size="10.00" fill="#000000">countryId</text>
<text text-anchor="start" x="70.1744" y="-563.5133" font-family="Times,serif" font-size="10.00" fill="#000000">: NUMBER</text>
<polygon fill="none" stroke="#000000" points="26.2984,-532.5133 26.2984,-554.5133 156.2984,-554.5133 156.2984,-532.5133 26.2984,-532.5133"/>
<text text-anchor="start" x="31.2984" y="-541.5133" font-family="Times,serif" font-style="italic" text-decoration="underline" font-size="10.00" fill="#000000">industryId</text>
<text text-anchor="start" x="72.4034" y="-541.5133" font-family="Times,serif" font-size="10.00" fill="#000000">: NUMBER</text>
<polygon fill="none" stroke="#000000" points="26.2984,-510.5133 26.2984,-532.5133 156.2984,-532.5133 156.2984,-510.5133 26.2984,-510.5133"/>
<text text-anchor="start" x="31.2984" y="-518.5133" font-family="Times,serif" font-size="10.00" fill="#000000">createdAt: DATE</text>
<polygon fill="none" stroke="#000000" points="26.2984,-488.5133 26.2984,-510.5133 156.2984,-510.5133 156.2984,-488.5133 26.2984,-488.5133"/>
<text text-anchor="start" x="31.2984" y="-496.5133" font-family="Times,serif" font-size="10.00" fill="#000000">updatedAt: DATE</text>
</g>
<!-- OrganisationModel&#45;&gt;AssessmentModel -->
<g id="edge7" class="edge">
<title>OrganisationModel&#45;&gt;AssessmentModel</title>
<path fill="none" stroke="#00cd00" stroke-width=".75" d="M156.4971,-708.5005C172.147,-716.4186 188.8362,-724.8624 204.4002,-732.737"/>
<polygon fill="#00cd00" stroke="#00cd00" stroke-width=".75" points="204.7256,-732.9016 208.8604,-738.0196 207.4024,-734.256 210.0793,-735.6104 210.0793,-735.6104 210.0793,-735.6104 207.4024,-734.256 211.2983,-733.2012 204.7256,-732.9016 204.7256,-732.9016"/>
</g>
<!-- OrganisationModel&#45;&gt;CountryModel -->
<g id="edge2" class="edge">
<title>OrganisationModel&#45;&gt;CountryModel</title>
<path fill="none" stroke="#00cd00" stroke-width=".75" d="M67.4896,-868.8615C63.3736,-902.2867 59.3595,-934.8846 56.0469,-961.786"/>
<polygon fill="#00cd00" stroke="#00cd00" stroke-width=".75" points="67.5258,-868.5669 70.9389,-862.9419 67.8925,-865.5894 68.2592,-862.6118 68.2592,-862.6118 68.2592,-862.6118 67.8925,-865.5894 65.5794,-862.2818 67.5258,-868.5669 67.5258,-868.5669"/>
</g>
<!-- OrganisationModel&#45;&gt;IndustryModel -->
<g id="edge1" class="edge">
<title>OrganisationModel&#45;&gt;IndustryModel</title>
<path fill="none" stroke="#00cd00" stroke-width=".75" d="M60.409,-482.3082C56.7416,-459.3694 53.2585,-437.5836 50.3043,-419.1061"/>
<polygon fill="#00cd00" stroke="#00cd00" stroke-width=".75" points="60.449,-482.5591 58.7302,-488.9101 60.9227,-485.5214 61.3964,-488.4838 61.3964,-488.4838 61.3964,-488.4838 60.9227,-485.5214 64.0625,-488.0575 60.449,-482.5591 60.449,-482.5591"/>
</g>
<!-- QuestionModel&#45;&gt;AnswerModel -->
<g id="edge8" class="edge">
<title>QuestionModel&#45;&gt;AnswerModel</title>
<path fill="none" stroke="#00cd00" stroke-width=".75" d="M723.3202,-1144.5373C756.2829,-1112.3994 801.3706,-1068.4401 836.5317,-1034.1589"/>
<polygon fill="#00cd00" stroke="#00cd00" stroke-width=".75" points="836.9096,-1033.7905 843.0905,-1031.5352 839.0576,-1031.6962 841.2056,-1029.6019 841.2056,-1029.6019 841.2056,-1029.6019 839.0576,-1031.6962 839.3208,-1027.6687 836.9096,-1033.7905 836.9096,-1033.7905"/>
</g>
<!-- QuestionModel&#45;&gt;FileModel -->
<g id="edge9" class="edge">
<title>QuestionModel&#45;&gt;FileModel</title>
<path fill="none" stroke="#00cd00" stroke-width=".75" d="M634.0338,-1200.5975C584.8656,-1214.4748 505.677,-1236.8251 451.4562,-1252.1284"/>
<polygon fill="#00cd00" stroke="#00cd00" stroke-width=".75" points="451.4057,-1252.1425 444.8979,-1251.1739 448.5185,-1252.9575 445.6313,-1253.7724 445.6313,-1253.7724 445.6313,-1253.7724 448.5185,-1252.9575 446.3647,-1256.3709 451.4057,-1252.1425 451.4057,-1252.1425"/>
</g>
<!-- ResetPasswordTokenModel -->
<g id="node9" class="node">
<title>ResetPasswordTokenModel</title>
<polygon fill="#add8e6" stroke="transparent" points="712.4467,-576.7833 712.4467,-598.7833 834.4467,-598.7833 834.4467,-576.7833 712.4467,-576.7833"/>
<polygon fill="none" stroke="#000000" points="712.4467,-576.7833 712.4467,-598.7833 834.4467,-598.7833 834.4467,-576.7833 712.4467,-576.7833"/>
<text text-anchor="start" x="717.3497" y="-585.7833" font-family="Times,serif" font-weight="bold" font-size="10.00" fill="#000000">ResetPasswordTokenModel</text>
<polygon fill="none" stroke="#000000" points="712.4467,-554.7833 712.4467,-576.7833 834.4467,-576.7833 834.4467,-554.7833 712.4467,-554.7833"/>
<text text-anchor="start" x="717.4467" y="-563.7833" font-family="Times,serif" text-decoration="underline" font-size="10.00" fill="#000000">id</text>
<text text-anchor="start" x="725.2257" y="-563.7833" font-family="Times,serif" font-size="10.00" fill="#000000">: NUMBER</text>
<polygon fill="none" stroke="#000000" points="712.4467,-532.7833 712.4467,-554.7833 834.4467,-554.7833 834.4467,-532.7833 712.4467,-532.7833"/>
<text text-anchor="start" x="717.4467" y="-540.7833" font-family="Times,serif" font-size="10.00" fill="#000000">email: STRING</text>
<polygon fill="none" stroke="#000000" points="712.4467,-510.7833 712.4467,-532.7833 834.4467,-532.7833 834.4467,-510.7833 712.4467,-510.7833"/>
<text text-anchor="start" x="717.4467" y="-518.7833" font-family="Times,serif" font-size="10.00" fill="#000000">token: STRING</text>
<polygon fill="none" stroke="#000000" points="712.4467,-488.7833 712.4467,-510.7833 834.4467,-510.7833 834.4467,-488.7833 712.4467,-488.7833"/>
<text text-anchor="start" x="717.4467" y="-496.7833" font-family="Times,serif" font-size="10.00" fill="#000000">status: STRING</text>
<polygon fill="none" stroke="#000000" points="712.4467,-466.7833 712.4467,-488.7833 834.4467,-488.7833 834.4467,-466.7833 712.4467,-466.7833"/>
<text text-anchor="start" x="717.4467" y="-474.7833" font-family="Times,serif" font-size="10.00" fill="#000000">createdAt: DATE</text>
<polygon fill="none" stroke="#000000" points="712.4467,-444.7833 712.4467,-466.7833 834.4467,-466.7833 834.4467,-444.7833 712.4467,-444.7833"/>
<text text-anchor="start" x="717.4467" y="-452.7833" font-family="Times,serif" font-size="10.00" fill="#000000">updatedAt: DATE</text>
</g>
<!-- TemplateGroupModel -->
<g id="node10" class="node">
<title>TemplateGroupModel</title>
<polygon fill="#add8e6" stroke="transparent" points="489.3945,-310.9995 489.3945,-332.9995 589.3945,-332.9995 589.3945,-310.9995 489.3945,-310.9995"/>
<polygon fill="none" stroke="#000000" points="489.3945,-310.9995 489.3945,-332.9995 589.3945,-332.9995 589.3945,-310.9995 489.3945,-310.9995"/>
<text text-anchor="start" x="494.6855" y="-319.9995" font-family="Times,serif" font-weight="bold" font-size="10.00" fill="#000000">TemplateGroupModel</text>
<polygon fill="none" stroke="#000000" points="489.3945,-288.9995 489.3945,-310.9995 589.3945,-310.9995 589.3945,-288.9995 489.3945,-288.9995"/>
<text text-anchor="start" x="494.3945" y="-297.9995" font-family="Times,serif" text-decoration="underline" font-size="10.00" fill="#000000">id</text>
<text text-anchor="start" x="502.1735" y="-297.9995" font-family="Times,serif" font-size="10.00" fill="#000000">: NUMBER</text>
<polygon fill="none" stroke="#000000" points="489.3945,-266.9995 489.3945,-288.9995 589.3945,-288.9995 589.3945,-266.9995 489.3945,-266.9995"/>
<text text-anchor="start" x="493.987" y="-275.9995" font-family="Times,serif" font-style="italic" text-decoration="underline" font-size="10.00" fill="#000000">templateId</text>
<text text-anchor="start" x="536.749" y="-275.9995" font-family="Times,serif" font-size="10.00" fill="#000000">: NUMBER</text>
<polygon fill="none" stroke="#000000" points="489.3945,-244.9995 489.3945,-266.9995 589.3945,-266.9995 589.3945,-244.9995 489.3945,-244.9995"/>
<text text-anchor="start" x="494.3945" y="-252.9995" font-family="Times,serif" font-size="10.00" fill="#000000">text: STRING</text>
<polygon fill="none" stroke="#000000" points="489.3945,-222.9995 489.3945,-244.9995 589.3945,-244.9995 589.3945,-222.9995 489.3945,-222.9995"/>
<text text-anchor="start" x="494.3945" y="-230.9995" font-family="Times,serif" font-size="10.00" fill="#000000">status: STRING</text>
<polygon fill="none" stroke="#000000" points="489.3945,-200.9995 489.3945,-222.9995 589.3945,-222.9995 589.3945,-200.9995 489.3945,-200.9995"/>
<text text-anchor="start" x="494.3945" y="-208.9995" font-family="Times,serif" font-size="10.00" fill="#000000">createdAt: DATE</text>
<polygon fill="none" stroke="#000000" points="489.3945,-178.9995 489.3945,-200.9995 589.3945,-200.9995 589.3945,-178.9995 489.3945,-178.9995"/>
<text text-anchor="start" x="494.3945" y="-186.9995" font-family="Times,serif" font-size="10.00" fill="#000000">updatedAt: DATE</text>
</g>
<!-- TemplateQuestionModel -->
<g id="node12" class="node">
<title>TemplateQuestionModel</title>
<polygon fill="#add8e6" stroke="transparent" points="439.3342,-132 439.3342,-154 548.3342,-154 548.3342,-132 439.3342,-132"/>
<polygon fill="none" stroke="#000000" points="439.3342,-132 439.3342,-154 548.3342,-154 548.3342,-132 439.3342,-132"/>
<text text-anchor="start" x="443.8467" y="-141" font-family="Times,serif" font-weight="bold" font-size="10.00" fill="#000000">TemplateQuestionModel</text>
<polygon fill="none" stroke="#000000" points="439.3342,-110 439.3342,-132 548.3342,-132 548.3342,-110 439.3342,-110"/>
<text text-anchor="start" x="444.3342" y="-119" font-family="Times,serif" text-decoration="underline" font-size="10.00" fill="#000000">id</text>
<text text-anchor="start" x="452.1132" y="-119" font-family="Times,serif" font-size="10.00" fill="#000000">: NUMBER</text>
<polygon fill="none" stroke="#000000" points="439.3342,-88 439.3342,-110 548.3342,-110 548.3342,-88 439.3342,-88"/>
<text text-anchor="start" x="444.3342" y="-97" font-family="Times,serif" font-style="italic" text-decoration="underline" font-size="10.00" fill="#000000">groupId</text>
<text text-anchor="start" x="475.9922" y="-97" font-family="Times,serif" font-size="10.00" fill="#000000">: NUMBER</text>
<polygon fill="none" stroke="#000000" points="439.3342,-66 439.3342,-88 548.3342,-88 548.3342,-66 439.3342,-66"/>
<text text-anchor="start" x="444.3342" y="-74" font-family="Times,serif" font-size="10.00" fill="#000000">text: STRING</text>
<polygon fill="none" stroke="#000000" points="439.3342,-44 439.3342,-66 548.3342,-66 548.3342,-44 439.3342,-44"/>
<text text-anchor="start" x="444.3342" y="-52" font-family="Times,serif" font-size="10.00" fill="#000000">status: STRING</text>
<polygon fill="none" stroke="#000000" points="439.3342,-22 439.3342,-44 548.3342,-44 548.3342,-22 439.3342,-22"/>
<text text-anchor="start" x="444.3342" y="-30" font-family="Times,serif" font-size="10.00" fill="#000000">createdAt: DATE</text>
<polygon fill="none" stroke="#000000" points="439.3342,0 439.3342,-22 548.3342,-22 548.3342,0 439.3342,0"/>
<text text-anchor="start" x="444.3342" y="-8" font-family="Times,serif" font-size="10.00" fill="#000000">updatedAt: DATE</text>
</g>
<!-- TemplateGroupModel&#45;&gt;TemplateQuestionModel -->
<g id="edge10" class="edge">
<title>TemplateGroupModel&#45;&gt;TemplateQuestionModel</title>
<path fill="none" stroke="#00cd00" stroke-width=".75" d="M519.5266,-178.7888C517.9561,-172.6858 516.3657,-166.505 514.7852,-160.3629"/>
<polygon fill="#00cd00" stroke="#00cd00" stroke-width=".75" points="514.7045,-160.0488 515.824,-153.5652 513.9568,-157.1435 513.2092,-154.2381 513.2092,-154.2381 513.2092,-154.2381 513.9568,-157.1435 510.5944,-154.911 514.7045,-160.0488 514.7045,-160.0488"/>
</g>
<!-- TemplateModel -->
<g id="node11" class="node">
<title>TemplateModel</title>
<polygon fill="#add8e6" stroke="transparent" points="351.4467,-448.7833 351.4467,-470.7833 434.4467,-470.7833 434.4467,-448.7833 351.4467,-448.7833"/>
<polygon fill="none" stroke="#000000" points="351.4467,-448.7833 351.4467,-470.7833 434.4467,-470.7833 434.4467,-448.7833 351.4467,-448.7833"/>
<text text-anchor="start" x="361.0117" y="-457.7833" font-family="Times,serif" font-weight="bold" font-size="10.00" fill="#000000">TemplateModel</text>
<polygon fill="none" stroke="#000000" points="351.4467,-426.7833 351.4467,-448.7833 434.4467,-448.7833 434.4467,-426.7833 351.4467,-426.7833"/>
<text text-anchor="start" x="356.4467" y="-435.7833" font-family="Times,serif" text-decoration="underline" font-size="10.00" fill="#000000">id</text>
<text text-anchor="start" x="364.2257" y="-435.7833" font-family="Times,serif" font-size="10.00" fill="#000000">: NUMBER</text>
<polygon fill="none" stroke="#000000" points="351.4467,-404.7833 351.4467,-426.7833 434.4467,-426.7833 434.4467,-404.7833 351.4467,-404.7833"/>
<text text-anchor="start" x="356.4467" y="-412.7833" font-family="Times,serif" font-size="10.00" fill="#000000">name: STRING</text>
<polygon fill="none" stroke="#000000" points="351.4467,-382.7833 351.4467,-404.7833 434.4467,-404.7833 434.4467,-382.7833 351.4467,-382.7833"/>
<text text-anchor="start" x="356.4467" y="-390.7833" font-family="Times,serif" font-size="10.00" fill="#000000">status: STRING</text>
<polygon fill="none" stroke="#000000" points="351.4467,-360.7833 351.4467,-382.7833 434.4467,-382.7833 434.4467,-360.7833 351.4467,-360.7833"/>
<text text-anchor="start" x="356.4467" y="-368.7833" font-family="Times,serif" font-size="10.00" fill="#000000">createdAt: DATE</text>
<polygon fill="none" stroke="#000000" points="351.4467,-338.7833 351.4467,-360.7833 434.4467,-360.7833 434.4467,-338.7833 351.4467,-338.7833"/>
<text text-anchor="start" x="356.1517" y="-346.7833" font-family="Times,serif" font-size="10.00" fill="#000000">updatedAt: DATE</text>
</g>
<!-- TemplateModel&#45;&gt;AssessmentModel -->
<g id="edge11" class="edge">
<title>TemplateModel&#45;&gt;AssessmentModel</title>
<path fill="none" stroke="#00cd00" stroke-width=".75" d="M369.5734,-470.8128C351.2835,-523.6114 325.2946,-598.6349 304.1497,-659.6748"/>
<polygon fill="#00cd00" stroke="#00cd00" stroke-width=".75" points="304.083,-659.8675 299.5677,-664.6532 303.101,-662.7022 302.119,-665.537 302.119,-665.537 302.119,-665.537 303.101,-662.7022 304.6703,-666.4208 304.083,-659.8675 304.083,-659.8675"/>
</g>
<!-- TemplateModel&#45;&gt;TemplateGroupModel -->
<g id="edge12" class="edge">
<title>TemplateModel&#45;&gt;TemplateGroupModel</title>
<path fill="none" stroke="#00cd00" stroke-width=".75" d="M434.163,-362.5458C449.964,-346.5473 468.1915,-328.0921 484.9902,-311.0835"/>
<polygon fill="#00cd00" stroke="#00cd00" stroke-width=".75" points="485.0117,-311.0617 491.149,-308.6901 487.1199,-308.9273 489.228,-306.7928 489.228,-306.7928 489.228,-306.7928 487.1199,-308.9273 487.307,-304.8955 485.0117,-311.0617 485.0117,-311.0617"/>
</g>
<!-- UserInfoModel -->
<g id="node13" class="node">
<title>UserInfoModel</title>
<polygon fill="#add8e6" stroke="transparent" points="460.1544,-697.7833 460.1544,-719.7833 575.1544,-719.7833 575.1544,-697.7833 460.1544,-697.7833"/>
<polygon fill="none" stroke="#000000" points="460.1544,-697.7833 460.1544,-719.7833 575.1544,-719.7833 575.1544,-697.7833 460.1544,-697.7833"/>
<text text-anchor="start" x="486.8339" y="-706.7833" font-family="Times,serif" font-weight="bold" font-size="10.00" fill="#000000">UserInfoModel</text>
<polygon fill="none" stroke="#000000" points="460.1544,-675.7833 460.1544,-697.7833 575.1544,-697.7833 575.1544,-675.7833 460.1544,-675.7833"/>
<text text-anchor="start" x="465.1544" y="-684.7833" font-family="Times,serif" text-decoration="underline" font-size="10.00" fill="#000000">userId</text>
<text text-anchor="start" x="490.1404" y="-684.7833" font-family="Times,serif" font-size="10.00" fill="#000000">: NUMBER</text>
<polygon fill="none" stroke="#000000" points="460.1544,-653.7833 460.1544,-675.7833 575.1544,-675.7833 575.1544,-653.7833 460.1544,-653.7833"/>
<text text-anchor="start" x="465.1544" y="-661.7833" font-family="Times,serif" font-size="10.00" fill="#000000">firstName: STRING</text>
<polygon fill="none" stroke="#000000" points="460.1544,-631.7833 460.1544,-653.7833 575.1544,-653.7833 575.1544,-631.7833 460.1544,-631.7833"/>
<text text-anchor="start" x="465.1544" y="-639.7833" font-family="Times,serif" font-size="10.00" fill="#000000">middleName: STRING</text>
<polygon fill="none" stroke="#000000" points="460.1544,-609.7833 460.1544,-631.7833 575.1544,-631.7833 575.1544,-609.7833 460.1544,-609.7833"/>
<text text-anchor="start" x="465.1544" y="-617.7833" font-family="Times,serif" font-size="10.00" fill="#000000">lastName: STRING</text>
<polygon fill="none" stroke="#000000" points="460.1544,-587.7833 460.1544,-609.7833 575.1544,-609.7833 575.1544,-587.7833 460.1544,-587.7833"/>
<text text-anchor="start" x="465.1544" y="-595.7833" font-family="Times,serif" font-size="10.00" fill="#000000">dateOfBirth: DATE</text>
<polygon fill="none" stroke="#000000" points="460.1544,-565.7833 460.1544,-587.7833 575.1544,-587.7833 575.1544,-565.7833 460.1544,-565.7833"/>
<text text-anchor="start" x="464.7469" y="-574.7833" font-family="Times,serif" font-style="italic" text-decoration="underline" font-size="10.00" fill="#000000">organisationId</text>
<text text-anchor="start" x="522.5089" y="-574.7833" font-family="Times,serif" font-size="10.00" fill="#000000">: NUMBER</text>
<polygon fill="none" stroke="#000000" points="460.1544,-543.7833 460.1544,-565.7833 575.1544,-565.7833 575.1544,-543.7833 460.1544,-543.7833"/>
<text text-anchor="start" x="465.1544" y="-551.7833" font-family="Times,serif" font-size="10.00" fill="#000000">createdAt: DATE</text>
<polygon fill="none" stroke="#000000" points="460.1544,-521.7833 460.1544,-543.7833 575.1544,-543.7833 575.1544,-521.7833 460.1544,-521.7833"/>
<text text-anchor="start" x="465.1544" y="-529.7833" font-family="Times,serif" font-size="10.00" fill="#000000">updatedAt: DATE</text>
</g>
<!-- UserInfoModel&#45;&gt;OrganisationModel -->
<g id="edge3" class="edge">
<title>UserInfoModel&#45;&gt;OrganisationModel</title>
<path fill="none" stroke="#00cd00" stroke-width=".75" d="M453.1403,-629.0102C373.1156,-639.2948 236.8903,-656.8022 156.3728,-667.1501"/>
<polygon fill="#00cd00" stroke="#00cd00" stroke-width=".75" points="453.3273,-628.9863 459.6226,-630.8993 456.3028,-628.6038 459.2784,-628.2214 459.2784,-628.2214 459.2784,-628.2214 456.3028,-628.6038 458.9342,-625.5434 453.3273,-628.9863 453.3273,-628.9863"/>
</g>
<!-- UserModel -->
<g id="node14" class="node">
<title>UserModel</title>
<polygon fill="#add8e6" stroke="transparent" points="348.4467,-769.7833 348.4467,-791.7833 437.4467,-791.7833 437.4467,-769.7833 348.4467,-769.7833"/>
<polygon fill="none" stroke="#000000" points="348.4467,-769.7833 348.4467,-791.7833 437.4467,-791.7833 437.4467,-769.7833 348.4467,-769.7833"/>
<text text-anchor="start" x="370.4552" y="-778.7833" font-family="Times,serif" font-weight="bold" font-size="10.00" fill="#000000">UserModel</text>
<polygon fill="none" stroke="#000000" points="348.4467,-747.7833 348.4467,-769.7833 437.4467,-769.7833 437.4467,-747.7833 348.4467,-747.7833"/>
<text text-anchor="start" x="353.4467" y="-756.7833" font-family="Times,serif" text-decoration="underline" font-size="10.00" fill="#000000">id</text>
<text text-anchor="start" x="361.2257" y="-756.7833" font-family="Times,serif" font-size="10.00" fill="#000000">: NUMBER</text>
<polygon fill="none" stroke="#000000" points="348.4467,-725.7833 348.4467,-747.7833 437.4467,-747.7833 437.4467,-725.7833 348.4467,-725.7833"/>
<text text-anchor="start" x="353.4467" y="-733.7833" font-family="Times,serif" font-size="10.00" fill="#000000">email: TEXT</text>
<polygon fill="none" stroke="#000000" points="348.4467,-703.7833 348.4467,-725.7833 437.4467,-725.7833 437.4467,-703.7833 348.4467,-703.7833"/>
<text text-anchor="start" x="353.3727" y="-711.7833" font-family="Times,serif" font-size="10.00" fill="#000000">password: STRING</text>
<polygon fill="none" stroke="#000000" points="348.4467,-681.7833 348.4467,-703.7833 437.4467,-703.7833 437.4467,-681.7833 348.4467,-681.7833"/>
<text text-anchor="start" x="353.4467" y="-689.7833" font-family="Times,serif" font-size="10.00" fill="#000000">role: STRING</text>
<polygon fill="none" stroke="#000000" points="348.4467,-659.7833 348.4467,-681.7833 437.4467,-681.7833 437.4467,-659.7833 348.4467,-659.7833"/>
<text text-anchor="start" x="353.4467" y="-667.7833" font-family="Times,serif" font-size="10.00" fill="#000000">status: STRING</text>
<polygon fill="none" stroke="#000000" points="348.4467,-637.7833 348.4467,-659.7833 437.4467,-659.7833 437.4467,-637.7833 348.4467,-637.7833"/>
<text text-anchor="start" x="353.4467" y="-645.7833" font-family="Times,serif" font-size="10.00" fill="#000000">plan: STRING</text>
<polygon fill="none" stroke="#000000" points="348.4467,-615.7833 348.4467,-637.7833 437.4467,-637.7833 437.4467,-615.7833 348.4467,-615.7833"/>
<text text-anchor="start" x="353.4467" y="-623.7833" font-family="Times,serif" font-size="10.00" fill="#000000">createdAt: DATE</text>
<polygon fill="none" stroke="#000000" points="348.4467,-593.7833 348.4467,-615.7833 437.4467,-615.7833 437.4467,-593.7833 348.4467,-593.7833"/>
<text text-anchor="start" x="353.4467" y="-601.7833" font-family="Times,serif" font-size="10.00" fill="#000000">updatedAt: DATE</text>
</g>
<!-- UserModel&#45;&gt;AssessmentModel -->
<g id="edge13" class="edge">
<title>UserModel&#45;&gt;AssessmentModel</title>
<path fill="none" stroke="#00cd00" stroke-width=".75" d="M347.7767,-718.5735C342.2117,-721.7865 336.4418,-725.1177 330.6655,-728.4527"/>
<polygon fill="#00cd00" stroke="#00cd00" stroke-width=".75" points="330.5606,-728.5132 324.0144,-729.175 327.9625,-730.0132 325.3645,-731.5132 325.3645,-731.5132 325.3645,-731.5132 327.9625,-730.0132 326.7145,-733.8515 330.5606,-728.5132 330.5606,-728.5132"/>
</g>
<!-- UserModel&#45;&gt;UserInfoModel -->
<g id="edge4" class="edge">
<title>UserModel&#45;&gt;UserInfoModel</title>
<path fill="none" stroke="#00cd00" stroke-width=".75" d="M442.6268,-663.8118C448.1886,-660.6007 453.8848,-657.312 459.529,-654.0533"/>
<polygon fill="#00cd00" stroke="#00cd00" stroke-width=".75" points="442.313,-663.9929 435.7668,-664.6547 439.7149,-665.4929 437.1168,-666.993 437.1168,-666.993 437.1168,-666.993 439.7149,-665.4929 438.4668,-669.3312 442.313,-663.9929 442.313,-663.9929"/>
</g>
</g>
</svg>
