<?xml version="1.0" encoding="UTF-8" standalone="no"?>
<!DOCTYPE svg PUBLIC "-//W3C//DTD SVG 1.1//EN"
 "http://www.w3.org/Graphics/SVG/1.1/DTD/svg11.dtd">
<!-- Generated by graphviz version 2.40.1 (20161225.0304)
 -->
<!-- Title: models_diagram Pages: 1 -->
<svg width="783pt" height="1015pt"
 viewBox="0.00 0.00 782.80 1014.83" xmlns="http://www.w3.org/2000/svg" xmlns:xlink="http://www.w3.org/1999/xlink">
<g id="graph0" class="graph" transform="scale(1 1) rotate(0) translate(36 978.8281)">
<title>models_diagram</title>
<polygon fill="#ffffff" stroke="transparent" points="-36,36 -36,-978.8281 746.7955,-978.8281 746.7955,36 -36,36"/>
<!-- AnswerModel -->
<g id="node1" class="node">
<title>AnswerModel</title>
<polygon fill="#add8e6" stroke="transparent" points="610.7955,-810.9334 610.7955,-832.9334 710.7955,-832.9334 710.7955,-810.9334 610.7955,-810.9334"/>
<polygon fill="none" stroke="#000000" points="610.7955,-810.9334 610.7955,-832.9334 710.7955,-832.9334 710.7955,-810.9334 610.7955,-810.9334"/>
<text text-anchor="start" x="632.1945" y="-819.9334" font-family="Times,serif" font-weight="bold" font-size="10.00" fill="#000000">AnswerModel</text>
<polygon fill="none" stroke="#000000" points="610.7955,-788.9334 610.7955,-810.9334 710.7955,-810.9334 710.7955,-788.9334 610.7955,-788.9334"/>
<text text-anchor="start" x="615.7955" y="-797.9334" font-family="Times,serif" text-decoration="underline" font-size="10.00" fill="#000000">id</text>
<text text-anchor="start" x="623.5745" y="-797.9334" font-family="Times,serif" font-size="10.00" fill="#000000">: NUMBER</text>
<polygon fill="none" stroke="#000000" points="610.7955,-766.9334 610.7955,-788.9334 710.7955,-788.9334 710.7955,-766.9334 610.7955,-766.9334"/>
<text text-anchor="start" x="615.6615" y="-775.9334" font-family="Times,serif" font-style="italic" text-decoration="underline" font-size="10.00" fill="#000000">questionId</text>
<text text-anchor="start" x="657.8765" y="-775.9334" font-family="Times,serif" font-size="10.00" fill="#000000">: NUMBER</text>
<polygon fill="none" stroke="#000000" points="610.7955,-744.9334 610.7955,-766.9334 710.7955,-766.9334 710.7955,-744.9334 610.7955,-744.9334"/>
<text text-anchor="start" x="615.7955" y="-752.9334" font-family="Times,serif" font-size="10.00" fill="#000000">text: STRING</text>
<polygon fill="none" stroke="#000000" points="610.7955,-722.9334 610.7955,-744.9334 710.7955,-744.9334 710.7955,-722.9334 610.7955,-722.9334"/>
<text text-anchor="start" x="615.7955" y="-730.9334" font-family="Times,serif" font-size="10.00" fill="#000000">status: STRING</text>
<polygon fill="none" stroke="#000000" points="610.7955,-700.9334 610.7955,-722.9334 710.7955,-722.9334 710.7955,-700.9334 610.7955,-700.9334"/>
<text text-anchor="start" x="615.7955" y="-708.9334" font-family="Times,serif" font-size="10.00" fill="#000000">userId: NUMBER</text>
<polygon fill="none" stroke="#000000" points="610.7955,-678.9334 610.7955,-700.9334 710.7955,-700.9334 710.7955,-678.9334 610.7955,-678.9334"/>
<text text-anchor="start" x="615.7955" y="-686.9334" font-family="Times,serif" font-size="10.00" fill="#000000">createdAt: DATE</text>
<polygon fill="none" stroke="#000000" points="610.7955,-656.9334 610.7955,-678.9334 710.7955,-678.9334 710.7955,-656.9334 610.7955,-656.9334"/>
<text text-anchor="start" x="615.7955" y="-664.9334" font-family="Times,serif" font-size="10.00" fill="#000000">updatedAt: DATE</text>
</g>
<!-- AssessmentModel -->
<g id="node2" class="node">
<title>AssessmentModel</title>
<polygon fill="#add8e6" stroke="transparent" points="312.9069,-497.4521 312.9069,-519.4521 412.9069,-519.4521 412.9069,-497.4521 312.9069,-497.4521"/>
<polygon fill="none" stroke="#000000" points="312.9069,-497.4521 312.9069,-519.4521 412.9069,-519.4521 412.9069,-497.4521 312.9069,-497.4521"/>
<text text-anchor="start" x="326.2479" y="-506.4521" font-family="Times,serif" font-weight="bold" font-size="10.00" fill="#000000">AssessmentModel</text>
<polygon fill="none" stroke="#000000" points="312.9069,-475.4521 312.9069,-497.4521 412.9069,-497.4521 412.9069,-475.4521 312.9069,-475.4521"/>
<text text-anchor="start" x="317.9069" y="-484.4521" font-family="Times,serif" text-decoration="underline" font-size="10.00" fill="#000000">id</text>
<text text-anchor="start" x="325.6859" y="-484.4521" font-family="Times,serif" font-size="10.00" fill="#000000">: NUMBER</text>
<polygon fill="none" stroke="#000000" points="312.9069,-453.4521 312.9069,-475.4521 412.9069,-475.4521 412.9069,-453.4521 312.9069,-453.4521"/>
<text text-anchor="start" x="317.9069" y="-462.4521" font-family="Times,serif" font-style="italic" text-decoration="underline" font-size="10.00" fill="#000000">userId</text>
<text text-anchor="start" x="342.8929" y="-462.4521" font-family="Times,serif" font-size="10.00" fill="#000000">: NUMBER</text>
<polygon fill="none" stroke="#000000" points="312.9069,-431.4521 312.9069,-453.4521 412.9069,-453.4521 412.9069,-431.4521 312.9069,-431.4521"/>
<text text-anchor="start" x="317.4994" y="-440.4521" font-family="Times,serif" font-style="italic" text-decoration="underline" font-size="10.00" fill="#000000">templateId</text>
<text text-anchor="start" x="360.2614" y="-440.4521" font-family="Times,serif" font-size="10.00" fill="#000000">: NUMBER</text>
<polygon fill="none" stroke="#000000" points="312.9069,-409.4521 312.9069,-431.4521 412.9069,-431.4521 412.9069,-409.4521 312.9069,-409.4521"/>
<text text-anchor="start" x="317.9069" y="-417.4521" font-family="Times,serif" font-size="10.00" fill="#000000">name: STRING</text>
<polygon fill="none" stroke="#000000" points="312.9069,-387.4521 312.9069,-409.4521 412.9069,-409.4521 412.9069,-387.4521 312.9069,-387.4521"/>
<text text-anchor="start" x="317.9069" y="-395.4521" font-family="Times,serif" font-size="10.00" fill="#000000">status: STRING</text>
<polygon fill="none" stroke="#000000" points="312.9069,-365.4521 312.9069,-387.4521 412.9069,-387.4521 412.9069,-365.4521 312.9069,-365.4521"/>
<text text-anchor="start" x="317.9069" y="-373.4521" font-family="Times,serif" font-size="10.00" fill="#000000">createdAt: DATE</text>
<polygon fill="none" stroke="#000000" points="312.9069,-343.4521 312.9069,-365.4521 412.9069,-365.4521 412.9069,-343.4521 312.9069,-343.4521"/>
<text text-anchor="start" x="317.9069" y="-351.4521" font-family="Times,serif" font-size="10.00" fill="#000000">updatedAt: DATE</text>
</g>
<!-- GroupModel -->
<g id="node4" class="node">
<title>GroupModel</title>
<polygon fill="#add8e6" stroke="transparent" points="304.9751,-698.163 304.9751,-720.163 414.9751,-720.163 414.9751,-698.163 304.9751,-698.163"/>
<polygon fill="none" stroke="#000000" points="304.9751,-698.163 304.9751,-720.163 414.9751,-720.163 414.9751,-698.163 304.9751,-698.163"/>
<text text-anchor="start" x="334.1476" y="-707.163" font-family="Times,serif" font-weight="bold" font-size="10.00" fill="#000000">GroupModel</text>
<polygon fill="none" stroke="#000000" points="304.9751,-676.163 304.9751,-698.163 414.9751,-698.163 414.9751,-676.163 304.9751,-676.163"/>
<text text-anchor="start" x="309.9751" y="-685.163" font-family="Times,serif" text-decoration="underline" font-size="10.00" fill="#000000">id</text>
<text text-anchor="start" x="317.7541" y="-685.163" font-family="Times,serif" font-size="10.00" fill="#000000">: NUMBER</text>
<polygon fill="none" stroke="#000000" points="304.9751,-654.163 304.9751,-676.163 414.9751,-676.163 414.9751,-654.163 304.9751,-654.163"/>
<text text-anchor="start" x="309.5686" y="-663.163" font-family="Times,serif" font-style="italic" text-decoration="underline" font-size="10.00" fill="#000000">assessmentId</text>
<text text-anchor="start" x="362.3286" y="-663.163" font-family="Times,serif" font-size="10.00" fill="#000000">: NUMBER</text>
<polygon fill="none" stroke="#000000" points="304.9751,-632.163 304.9751,-654.163 414.9751,-654.163 414.9751,-632.163 304.9751,-632.163"/>
<text text-anchor="start" x="309.9751" y="-640.163" font-family="Times,serif" font-size="10.00" fill="#000000">text: STRING</text>
<polygon fill="none" stroke="#000000" points="304.9751,-610.163 304.9751,-632.163 414.9751,-632.163 414.9751,-610.163 304.9751,-610.163"/>
<text text-anchor="start" x="309.9751" y="-618.163" font-family="Times,serif" font-size="10.00" fill="#000000">userId: NUMBER</text>
<polygon fill="none" stroke="#000000" points="304.9751,-588.163 304.9751,-610.163 414.9751,-610.163 414.9751,-588.163 304.9751,-588.163"/>
<text text-anchor="start" x="309.9751" y="-596.163" font-family="Times,serif" font-size="10.00" fill="#000000">status: STRING</text>
<polygon fill="none" stroke="#000000" points="304.9751,-566.163 304.9751,-588.163 414.9751,-588.163 414.9751,-566.163 304.9751,-566.163"/>
<text text-anchor="start" x="309.9751" y="-574.163" font-family="Times,serif" font-size="10.00" fill="#000000">createdAt: DATE</text>
<polygon fill="none" stroke="#000000" points="304.9751,-544.163 304.9751,-566.163 414.9751,-566.163 414.9751,-544.163 304.9751,-544.163"/>
<text text-anchor="start" x="309.9751" y="-552.163" font-family="Times,serif" font-size="10.00" fill="#000000">updatedAt: DATE</text>
</g>
<!-- AssessmentModel&#45;&gt;GroupModel -->
<g id="edge1" class="edge">
<title>AssessmentModel&#45;&gt;GroupModel</title>
<path fill="none" stroke="#00cd00" stroke-width=".75" d="M361.6209,-519.4868C361.5321,-525.5695 361.4423,-531.7136 361.353,-537.8278"/>
<polygon fill="#00cd00" stroke="#00cd00" stroke-width=".75" points="361.3516,-537.9292 358.5642,-543.8891 361.3078,-540.9289 361.2639,-543.9286 361.2639,-543.9286 361.2639,-543.9286 361.3078,-540.9289 363.9636,-543.9681 361.3516,-537.9292 361.3516,-537.9292"/>
</g>
<!-- FileModel -->
<g id="node3" class="node">
<title>FileModel</title>
<polygon fill="#add8e6" stroke="transparent" points="0,-844.7657 0,-866.7657 106,-866.7657 106,-844.7657 0,-844.7657"/>
<polygon fill="none" stroke="#000000" points="0,-844.7657 0,-866.7657 106,-866.7657 106,-844.7657 0,-844.7657"/>
<text text-anchor="start" x="32.1685" y="-853.7657" font-family="Times,serif" font-weight="bold" font-size="10.00" fill="#000000">FileModel</text>
<polygon fill="none" stroke="#000000" points="0,-822.7657 0,-844.7657 106,-844.7657 106,-822.7657 0,-822.7657"/>
<text text-anchor="start" x="5" y="-831.7657" font-family="Times,serif" text-decoration="underline" font-size="10.00" fill="#000000">id</text>
<text text-anchor="start" x="12.779" y="-831.7657" font-family="Times,serif" font-size="10.00" fill="#000000">: NUMBER</text>
<polygon fill="none" stroke="#000000" points="0,-800.7657 0,-822.7657 106,-822.7657 106,-800.7657 0,-800.7657"/>
<text text-anchor="start" x="5" y="-809.7657" font-family="Times,serif" font-style="italic" text-decoration="underline" font-size="10.00" fill="#000000">ownerId</text>
<text text-anchor="start" x="38.316" y="-809.7657" font-family="Times,serif" font-size="10.00" fill="#000000">: NUMBER</text>
<polygon fill="none" stroke="#000000" points="0,-778.7657 0,-800.7657 106,-800.7657 106,-778.7657 0,-778.7657"/>
<text text-anchor="start" x="5" y="-786.7657" font-family="Times,serif" font-size="10.00" fill="#000000">owner: STRING</text>
<polygon fill="none" stroke="#000000" points="0,-756.7657 0,-778.7657 106,-778.7657 106,-756.7657 0,-756.7657"/>
<text text-anchor="start" x="4.818" y="-764.7657" font-family="Times,serif" font-size="10.00" fill="#000000">originalName: STRING</text>
<polygon fill="none" stroke="#000000" points="0,-734.7657 0,-756.7657 106,-756.7657 106,-734.7657 0,-734.7657"/>
<text text-anchor="start" x="5" y="-742.7657" font-family="Times,serif" font-size="10.00" fill="#000000">name: STRING</text>
<polygon fill="none" stroke="#000000" points="0,-712.7657 0,-734.7657 106,-734.7657 106,-712.7657 0,-712.7657"/>
<text text-anchor="start" x="5" y="-720.7657" font-family="Times,serif" font-size="10.00" fill="#000000">extension: STRING</text>
<polygon fill="none" stroke="#000000" points="0,-690.7657 0,-712.7657 106,-712.7657 106,-690.7657 0,-690.7657"/>
<text text-anchor="start" x="5" y="-698.7657" font-family="Times,serif" font-size="10.00" fill="#000000">mime: STRING</text>
<polygon fill="none" stroke="#000000" points="0,-668.7657 0,-690.7657 106,-690.7657 106,-668.7657 0,-668.7657"/>
<text text-anchor="start" x="5" y="-676.7657" font-family="Times,serif" font-size="10.00" fill="#000000">status: STRING</text>
<polygon fill="none" stroke="#000000" points="0,-646.7657 0,-668.7657 106,-668.7657 106,-646.7657 0,-646.7657"/>
<text text-anchor="start" x="5" y="-654.7657" font-family="Times,serif" font-size="10.00" fill="#000000">createdAt: DATE</text>
<polygon fill="none" stroke="#000000" points="0,-624.7657 0,-646.7657 106,-646.7657 106,-624.7657 0,-624.7657"/>
<text text-anchor="start" x="5" y="-632.7657" font-family="Times,serif" font-size="10.00" fill="#000000">updatedAt: DATE</text>
</g>
<!-- QuestionModel -->
<g id="node5" class="node">
<title>QuestionModel</title>
<polygon fill="#add8e6" stroke="transparent" points="313.7501,-920.8281 313.7501,-942.8281 402.7501,-942.8281 402.7501,-920.8281 313.7501,-920.8281"/>
<polygon fill="none" stroke="#000000" points="313.7501,-920.8281 313.7501,-942.8281 402.7501,-942.8281 402.7501,-920.8281 313.7501,-920.8281"/>
<text text-anchor="start" x="327.1441" y="-929.8281" font-family="Times,serif" font-weight="bold" font-size="10.00" fill="#000000">QuestionModel</text>
<polygon fill="none" stroke="#000000" points="313.7501,-898.8281 313.7501,-920.8281 402.7501,-920.8281 402.7501,-898.8281 313.7501,-898.8281"/>
<text text-anchor="start" x="318.7501" y="-907.8281" font-family="Times,serif" text-decoration="underline" font-size="10.00" fill="#000000">id</text>
<text text-anchor="start" x="326.5291" y="-907.8281" font-family="Times,serif" font-size="10.00" fill="#000000">: NUMBER</text>
<polygon fill="none" stroke="#000000" points="313.7501,-876.8281 313.7501,-898.8281 402.7501,-898.8281 402.7501,-876.8281 313.7501,-876.8281"/>
<text text-anchor="start" x="318.3946" y="-885.8281" font-family="Times,serif" font-style="italic" text-decoration="underline" font-size="10.00" fill="#000000">groupId</text>
<text text-anchor="start" x="350.0526" y="-885.8281" font-family="Times,serif" font-size="10.00" fill="#000000">: NUMBER</text>
<polygon fill="none" stroke="#000000" points="313.7501,-854.8281 313.7501,-876.8281 402.7501,-876.8281 402.7501,-854.8281 313.7501,-854.8281"/>
<text text-anchor="start" x="318.7501" y="-862.8281" font-family="Times,serif" font-size="10.00" fill="#000000">text: STRING</text>
<polygon fill="none" stroke="#000000" points="313.7501,-832.8281 313.7501,-854.8281 402.7501,-854.8281 402.7501,-832.8281 313.7501,-832.8281"/>
<text text-anchor="start" x="318.7501" y="-840.8281" font-family="Times,serif" font-size="10.00" fill="#000000">userId: NUMBER</text>
<polygon fill="none" stroke="#000000" points="313.7501,-810.8281 313.7501,-832.8281 402.7501,-832.8281 402.7501,-810.8281 313.7501,-810.8281"/>
<text text-anchor="start" x="318.7501" y="-818.8281" font-family="Times,serif" font-size="10.00" fill="#000000">status: STRING</text>
<polygon fill="none" stroke="#000000" points="313.7501,-788.8281 313.7501,-810.8281 402.7501,-810.8281 402.7501,-788.8281 313.7501,-788.8281"/>
<text text-anchor="start" x="318.7501" y="-796.8281" font-family="Times,serif" font-size="10.00" fill="#000000">createdAt: DATE</text>
<polygon fill="none" stroke="#000000" points="313.7501,-766.8281 313.7501,-788.8281 402.7501,-788.8281 402.7501,-766.8281 313.7501,-766.8281"/>
<text text-anchor="start" x="318.7501" y="-774.8281" font-family="Times,serif" font-size="10.00" fill="#000000">updatedAt: DATE</text>
</g>
<!-- GroupModel&#45;&gt;QuestionModel -->
<g id="edge2" class="edge">
<title>GroupModel&#45;&gt;QuestionModel</title>
<path fill="none" stroke="#00cd00" stroke-width=".75" d="M359.0957,-720.1661C358.963,-733.4484 358.8256,-747.1946 358.6916,-760.6017"/>
<polygon fill="#00cd00" stroke="#00cd00" stroke-width=".75" points="358.6904,-760.7353 355.9305,-766.708 358.6604,-763.7352 358.6303,-766.735 358.6303,-766.735 358.6303,-766.735 358.6604,-763.7352 361.3302,-766.762 358.6904,-760.7353 358.6904,-760.7353"/>
</g>
<!-- QuestionModel&#45;&gt;AnswerModel -->
<g id="edge3" class="edge">
<title>QuestionModel&#45;&gt;AnswerModel</title>
<path fill="none" stroke="#00cd00" stroke-width=".75" d="M402.4654,-838.6127C456.1874,-819.1313 546.3549,-786.4335 604.6961,-765.2769"/>
<polygon fill="#00cd00" stroke="#00cd00" stroke-width=".75" points="604.9511,-765.1845 611.5121,-765.6773 607.7714,-764.1618 610.5917,-763.139 610.5917,-763.139 610.5917,-763.139 607.7714,-764.1618 609.6712,-760.6007 604.9511,-765.1845 604.9511,-765.1845"/>
</g>
<!-- QuestionModel&#45;&gt;FileModel -->
<g id="edge4" class="edge">
<title>QuestionModel&#45;&gt;FileModel</title>
<path fill="none" stroke="#00cd00" stroke-width=".75" d="M313.1104,-838.8527C259.9645,-819.8331 171.0192,-788.0018 112.1779,-766.944"/>
<polygon fill="#00cd00" stroke="#00cd00" stroke-width=".75" points="111.8738,-766.8352 107.1344,-762.2714 109.0492,-765.8244 106.2246,-764.8135 106.2246,-764.8135 106.2246,-764.8135 109.0492,-765.8244 105.3149,-767.3556 111.8738,-766.8352 111.8738,-766.8352"/>
</g>
<!-- TemplateGroupModel -->
<g id="node6" class="node">
<title>TemplateGroupModel</title>
<polygon fill="#add8e6" stroke="transparent" points="82.3075,-310.6964 82.3075,-332.6964 182.3075,-332.6964 182.3075,-310.6964 82.3075,-310.6964"/>
<polygon fill="none" stroke="#000000" points="82.3075,-310.6964 82.3075,-332.6964 182.3075,-332.6964 182.3075,-310.6964 82.3075,-310.6964"/>
<text text-anchor="start" x="87.5985" y="-319.6964" font-family="Times,serif" font-weight="bold" font-size="10.00" fill="#000000">TemplateGroupModel</text>
<polygon fill="none" stroke="#000000" points="82.3075,-288.6964 82.3075,-310.6964 182.3075,-310.6964 182.3075,-288.6964 82.3075,-288.6964"/>
<text text-anchor="start" x="87.3075" y="-297.6964" font-family="Times,serif" text-decoration="underline" font-size="10.00" fill="#000000">id</text>
<text text-anchor="start" x="95.0865" y="-297.6964" font-family="Times,serif" font-size="10.00" fill="#000000">: NUMBER</text>
<polygon fill="none" stroke="#000000" points="82.3075,-266.6964 82.3075,-288.6964 182.3075,-288.6964 182.3075,-266.6964 82.3075,-266.6964"/>
<text text-anchor="start" x="86.9" y="-275.6964" font-family="Times,serif" font-style="italic" text-decoration="underline" font-size="10.00" fill="#000000">templateId</text>
<text text-anchor="start" x="129.662" y="-275.6964" font-family="Times,serif" font-size="10.00" fill="#000000">: NUMBER</text>
<polygon fill="none" stroke="#000000" points="82.3075,-244.6964 82.3075,-266.6964 182.3075,-266.6964 182.3075,-244.6964 82.3075,-244.6964"/>
<text text-anchor="start" x="87.3075" y="-252.6964" font-family="Times,serif" font-size="10.00" fill="#000000">text: STRING</text>
<polygon fill="none" stroke="#000000" points="82.3075,-222.6964 82.3075,-244.6964 182.3075,-244.6964 182.3075,-222.6964 82.3075,-222.6964"/>
<text text-anchor="start" x="87.3075" y="-230.6964" font-family="Times,serif" font-size="10.00" fill="#000000">status: STRING</text>
<polygon fill="none" stroke="#000000" points="82.3075,-200.6964 82.3075,-222.6964 182.3075,-222.6964 182.3075,-200.6964 82.3075,-200.6964"/>
<text text-anchor="start" x="87.3075" y="-208.6964" font-family="Times,serif" font-size="10.00" fill="#000000">createdAt: DATE</text>
<polygon fill="none" stroke="#000000" points="82.3075,-178.6964 82.3075,-200.6964 182.3075,-200.6964 182.3075,-178.6964 82.3075,-178.6964"/>
<text text-anchor="start" x="87.3075" y="-186.6964" font-family="Times,serif" font-size="10.00" fill="#000000">updatedAt: DATE</text>
</g>
<!-- TemplateQuestionModel -->
<g id="node8" class="node">
<title>TemplateQuestionModel</title>
<polygon fill="#add8e6" stroke="transparent" points="68.3635,-132 68.3635,-154 177.3635,-154 177.3635,-132 68.3635,-132"/>
<polygon fill="none" stroke="#000000" points="68.3635,-132 68.3635,-154 177.3635,-154 177.3635,-132 68.3635,-132"/>
<text text-anchor="start" x="72.876" y="-141" font-family="Times,serif" font-weight="bold" font-size="10.00" fill="#000000">TemplateQuestionModel</text>
<polygon fill="none" stroke="#000000" points="68.3635,-110 68.3635,-132 177.3635,-132 177.3635,-110 68.3635,-110"/>
<text text-anchor="start" x="73.3635" y="-119" font-family="Times,serif" text-decoration="underline" font-size="10.00" fill="#000000">id</text>
<text text-anchor="start" x="81.1425" y="-119" font-family="Times,serif" font-size="10.00" fill="#000000">: NUMBER</text>
<polygon fill="none" stroke="#000000" points="68.3635,-88 68.3635,-110 177.3635,-110 177.3635,-88 68.3635,-88"/>
<text text-anchor="start" x="73.3635" y="-97" font-family="Times,serif" font-style="italic" text-decoration="underline" font-size="10.00" fill="#000000">groupId</text>
<text text-anchor="start" x="105.0215" y="-97" font-family="Times,serif" font-size="10.00" fill="#000000">: NUMBER</text>
<polygon fill="none" stroke="#000000" points="68.3635,-66 68.3635,-88 177.3635,-88 177.3635,-66 68.3635,-66"/>
<text text-anchor="start" x="73.3635" y="-74" font-family="Times,serif" font-size="10.00" fill="#000000">text: STRING</text>
<polygon fill="none" stroke="#000000" points="68.3635,-44 68.3635,-66 177.3635,-66 177.3635,-44 68.3635,-44"/>
<text text-anchor="start" x="73.3635" y="-52" font-family="Times,serif" font-size="10.00" fill="#000000">status: STRING</text>
<polygon fill="none" stroke="#000000" points="68.3635,-22 68.3635,-44 177.3635,-44 177.3635,-22 68.3635,-22"/>
<text text-anchor="start" x="73.3635" y="-30" font-family="Times,serif" font-size="10.00" fill="#000000">createdAt: DATE</text>
<polygon fill="none" stroke="#000000" points="68.3635,0 68.3635,-22 177.3635,-22 177.3635,0 68.3635,0"/>
<text text-anchor="start" x="73.3635" y="-8" font-family="Times,serif" font-size="10.00" fill="#000000">updatedAt: DATE</text>
</g>
<!-- TemplateGroupModel&#45;&gt;TemplateQuestionModel -->
<g id="edge5" class="edge">
<title>TemplateGroupModel&#45;&gt;TemplateQuestionModel</title>
<path fill="none" stroke="#00cd00" stroke-width=".75" d="M128.0182,-178.6165C127.6791,-172.5238 127.3358,-166.3534 126.9946,-160.2218"/>
<polygon fill="#00cd00" stroke="#00cd00" stroke-width=".75" points="126.9878,-160.098 129.3501,-153.9573 126.821,-157.1027 126.6543,-154.1073 126.6543,-154.1073 126.6543,-154.1073 126.821,-157.1027 123.9585,-154.2574 126.9878,-160.098 126.9878,-160.098"/>
</g>
<!-- TemplateModel -->
<g id="node7" class="node">
<title>TemplateModel</title>
<polygon fill="#add8e6" stroke="transparent" points="88.3991,-483.8705 88.3991,-505.8705 171.3991,-505.8705 171.3991,-483.8705 88.3991,-483.8705"/>
<polygon fill="none" stroke="#000000" points="88.3991,-483.8705 88.3991,-505.8705 171.3991,-505.8705 171.3991,-483.8705 88.3991,-483.8705"/>
<text text-anchor="start" x="97.9641" y="-492.8705" font-family="Times,serif" font-weight="bold" font-size="10.00" fill="#000000">TemplateModel</text>
<polygon fill="none" stroke="#000000" points="88.3991,-461.8705 88.3991,-483.8705 171.3991,-483.8705 171.3991,-461.8705 88.3991,-461.8705"/>
<text text-anchor="start" x="93.3991" y="-470.8705" font-family="Times,serif" text-decoration="underline" font-size="10.00" fill="#000000">id</text>
<text text-anchor="start" x="101.1781" y="-470.8705" font-family="Times,serif" font-size="10.00" fill="#000000">: NUMBER</text>
<polygon fill="none" stroke="#000000" points="88.3991,-439.8705 88.3991,-461.8705 171.3991,-461.8705 171.3991,-439.8705 88.3991,-439.8705"/>
<text text-anchor="start" x="93.3991" y="-447.8705" font-family="Times,serif" font-size="10.00" fill="#000000">name: STRING</text>
<polygon fill="none" stroke="#000000" points="88.3991,-417.8705 88.3991,-439.8705 171.3991,-439.8705 171.3991,-417.8705 88.3991,-417.8705"/>
<text text-anchor="start" x="93.3991" y="-425.8705" font-family="Times,serif" font-size="10.00" fill="#000000">status: STRING</text>
<polygon fill="none" stroke="#000000" points="88.3991,-395.8705 88.3991,-417.8705 171.3991,-417.8705 171.3991,-395.8705 88.3991,-395.8705"/>
<text text-anchor="start" x="93.3991" y="-403.8705" font-family="Times,serif" font-size="10.00" fill="#000000">createdAt: DATE</text>
<polygon fill="none" stroke="#000000" points="88.3991,-373.8705 88.3991,-395.8705 171.3991,-395.8705 171.3991,-373.8705 88.3991,-373.8705"/>
<text text-anchor="start" x="93.1041" y="-381.8705" font-family="Times,serif" font-size="10.00" fill="#000000">updatedAt: DATE</text>
</g>
<!-- TemplateModel&#45;&gt;AssessmentModel -->
<g id="edge6" class="edge">
<title>TemplateModel&#45;&gt;AssessmentModel</title>
<path fill="none" stroke="#00cd00" stroke-width=".75" d="M171.1456,-438.3654C208.9055,-437.0041 264.8172,-434.9884 306.5365,-433.4843"/>
<polygon fill="#00cd00" stroke="#00cd00" stroke-width=".75" points="306.5889,-433.4825 312.6823,-435.9645 309.5869,-433.3744 312.585,-433.2663 312.585,-433.2663 312.585,-433.2663 309.5869,-433.3744 312.4876,-430.568 306.5889,-433.4825 306.5889,-433.4825"/>
</g>
<!-- TemplateModel&#45;&gt;TemplateGroupModel -->
<g id="edge7" class="edge">
<title>TemplateModel&#45;&gt;TemplateGroupModel</title>
<path fill="none" stroke="#00cd00" stroke-width=".75" d="M130.445,-373.6396C130.6225,-362.3988 130.8088,-350.5987 130.9922,-338.9868"/>
<polygon fill="#00cd00" stroke="#00cd00" stroke-width=".75" points="130.9929,-338.9349 133.7874,-332.9783 131.0403,-335.9352 131.0878,-332.9356 131.0878,-332.9356 131.0878,-332.9356 131.0403,-335.9352 128.3881,-332.8929 130.9929,-338.9349 130.9929,-338.9349"/>
</g>
<!-- UserInfoModel -->
<g id="node9" class="node">
<title>UserInfoModel</title>
<polygon fill="#add8e6" stroke="transparent" points="536.4639,-215.5733 536.4639,-237.5733 639.4639,-237.5733 639.4639,-215.5733 536.4639,-215.5733"/>
<polygon fill="none" stroke="#000000" points="536.4639,-215.5733 536.4639,-237.5733 639.4639,-237.5733 639.4639,-215.5733 536.4639,-215.5733"/>
<text text-anchor="start" x="557.1434" y="-224.5733" font-family="Times,serif" font-weight="bold" font-size="10.00" fill="#000000">UserInfoModel</text>
<polygon fill="none" stroke="#000000" points="536.4639,-193.5733 536.4639,-215.5733 639.4639,-215.5733 639.4639,-193.5733 536.4639,-193.5733"/>
<text text-anchor="start" x="541.4639" y="-202.5733" font-family="Times,serif" text-decoration="underline" font-size="10.00" fill="#000000">id</text>
<text text-anchor="start" x="549.2429" y="-202.5733" font-family="Times,serif" font-size="10.00" fill="#000000">: NUMBER</text>
<polygon fill="none" stroke="#000000" points="536.4639,-171.5733 536.4639,-193.5733 639.4639,-193.5733 639.4639,-171.5733 536.4639,-171.5733"/>
<text text-anchor="start" x="541.4639" y="-180.5733" font-family="Times,serif" font-style="italic" text-decoration="underline" font-size="10.00" fill="#000000">userId</text>
<text text-anchor="start" x="566.4499" y="-180.5733" font-family="Times,serif" font-size="10.00" fill="#000000">: NUMBER</text>
<polygon fill="none" stroke="#000000" points="536.4639,-149.5733 536.4639,-171.5733 639.4639,-171.5733 639.4639,-149.5733 536.4639,-149.5733"/>
<text text-anchor="start" x="541.4639" y="-157.5733" font-family="Times,serif" font-size="10.00" fill="#000000">firstName: STRING</text>
<polygon fill="none" stroke="#000000" points="536.4639,-127.5733 536.4639,-149.5733 639.4639,-149.5733 639.4639,-127.5733 536.4639,-127.5733"/>
<text text-anchor="start" x="541.4464" y="-135.5733" font-family="Times,serif" font-size="10.00" fill="#000000">middleName: STRING</text>
<polygon fill="none" stroke="#000000" points="536.4639,-105.5733 536.4639,-127.5733 639.4639,-127.5733 639.4639,-105.5733 536.4639,-105.5733"/>
<text text-anchor="start" x="541.4639" y="-113.5733" font-family="Times,serif" font-size="10.00" fill="#000000">lastName: STRING</text>
<polygon fill="none" stroke="#000000" points="536.4639,-83.5733 536.4639,-105.5733 639.4639,-105.5733 639.4639,-83.5733 536.4639,-83.5733"/>
<text text-anchor="start" x="541.4639" y="-91.5733" font-family="Times,serif" font-size="10.00" fill="#000000">organization: STRING</text>
<polygon fill="none" stroke="#000000" points="536.4639,-61.5733 536.4639,-83.5733 639.4639,-83.5733 639.4639,-61.5733 536.4639,-61.5733"/>
<text text-anchor="start" x="541.4639" y="-69.5733" font-family="Times,serif" font-size="10.00" fill="#000000">dateOfBirth: DATE</text>
<polygon fill="none" stroke="#000000" points="536.4639,-39.5733 536.4639,-61.5733 639.4639,-61.5733 639.4639,-39.5733 536.4639,-39.5733"/>
<text text-anchor="start" x="541.4639" y="-47.5733" font-family="Times,serif" font-size="10.00" fill="#000000">createdAt: DATE</text>
<polygon fill="none" stroke="#000000" points="536.4639,-17.5733 536.4639,-39.5733 639.4639,-39.5733 639.4639,-17.5733 536.4639,-17.5733"/>
<text text-anchor="start" x="541.4639" y="-25.5733" font-family="Times,serif" font-size="10.00" fill="#000000">updatedAt: DATE</text>
</g>
<!-- UserModel -->
<g id="node10" class="node">
<title>UserModel</title>
<polygon fill="#add8e6" stroke="transparent" points="548.9335,-464.0057 548.9335,-486.0057 637.9335,-486.0057 637.9335,-464.0057 548.9335,-464.0057"/>
<polygon fill="none" stroke="#000000" points="548.9335,-464.0057 548.9335,-486.0057 637.9335,-486.0057 637.9335,-464.0057 548.9335,-464.0057"/>
<text text-anchor="start" x="570.942" y="-473.0057" font-family="Times,serif" font-weight="bold" font-size="10.00" fill="#000000">UserModel</text>
<polygon fill="none" stroke="#000000" points="548.9335,-442.0057 548.9335,-464.0057 637.9335,-464.0057 637.9335,-442.0057 548.9335,-442.0057"/>
<text text-anchor="start" x="553.9335" y="-451.0057" font-family="Times,serif" text-decoration="underline" font-size="10.00" fill="#000000">id</text>
<text text-anchor="start" x="561.7125" y="-451.0057" font-family="Times,serif" font-size="10.00" fill="#000000">: NUMBER</text>
<polygon fill="none" stroke="#000000" points="548.9335,-420.0057 548.9335,-442.0057 637.9335,-442.0057 637.9335,-420.0057 548.9335,-420.0057"/>
<text text-anchor="start" x="553.9335" y="-428.0057" font-family="Times,serif" font-size="10.00" fill="#000000">email: TEXT</text>
<polygon fill="none" stroke="#000000" points="548.9335,-398.0057 548.9335,-420.0057 637.9335,-420.0057 637.9335,-398.0057 548.9335,-398.0057"/>
<text text-anchor="start" x="553.8595" y="-406.0057" font-family="Times,serif" font-size="10.00" fill="#000000">password: STRING</text>
<polygon fill="none" stroke="#000000" points="548.9335,-376.0057 548.9335,-398.0057 637.9335,-398.0057 637.9335,-376.0057 548.9335,-376.0057"/>
<text text-anchor="start" x="553.9335" y="-384.0057" font-family="Times,serif" font-size="10.00" fill="#000000">role: STRING</text>
<polygon fill="none" stroke="#000000" points="548.9335,-354.0057 548.9335,-376.0057 637.9335,-376.0057 637.9335,-354.0057 548.9335,-354.0057"/>
<text text-anchor="start" x="553.9335" y="-362.0057" font-family="Times,serif" font-size="10.00" fill="#000000">status: STRING</text>
<polygon fill="none" stroke="#000000" points="548.9335,-332.0057 548.9335,-354.0057 637.9335,-354.0057 637.9335,-332.0057 548.9335,-332.0057"/>
<text text-anchor="start" x="553.9335" y="-340.0057" font-family="Times,serif" font-size="10.00" fill="#000000">createdAt: DATE</text>
<polygon fill="none" stroke="#000000" points="548.9335,-310.0057 548.9335,-332.0057 637.9335,-332.0057 637.9335,-310.0057 548.9335,-310.0057"/>
<text text-anchor="start" x="553.9335" y="-318.0057" font-family="Times,serif" font-size="10.00" fill="#000000">updatedAt: DATE</text>
</g>
<!-- UserModel&#45;&gt;AssessmentModel -->
<g id="edge8" class="edge">
<title>UserModel&#45;&gt;AssessmentModel</title>
<path fill="none" stroke="#00cd00" stroke-width=".75" d="M548.3093,-404.4942C511.4766,-409.8497 458.9947,-417.4807 419.2641,-423.2576"/>
<polygon fill="#00cd00" stroke="#00cd00" stroke-width=".75" points="418.939,-423.3048 412.6129,-421.4963 415.9703,-423.7365 413.0015,-424.1682 413.0015,-424.1682 413.0015,-424.1682 415.9703,-423.7365 413.39,-426.8401 418.939,-423.3048 418.939,-423.3048"/>
</g>
<!-- UserModel&#45;&gt;UserInfoModel -->
<g id="edge9" class="edge">
<title>UserModel&#45;&gt;UserInfoModel</title>
<path fill="none" stroke="#00cd00" stroke-width=".75" d="M591.1501,-309.8302C590.6856,-286.864 590.1793,-261.8295 589.6948,-237.8755"/>
</g>
</g>
</svg>
