<?xml version="1.0" encoding="UTF-8" standalone="no"?>
<!DOCTYPE svg PUBLIC "-//W3C//DTD SVG 1.1//EN"
 "http://www.w3.org/Graphics/SVG/1.1/DTD/svg11.dtd">
<!-- Generated by graphviz version 2.40.1 (20161225.0304)
 -->
<!-- Title: models_diagram Pages: 1 -->
<svg width="900pt" height="1147pt"
 viewBox="0.00 0.00 900.20 1147.34" xmlns="http://www.w3.org/2000/svg" xmlns:xlink="http://www.w3.org/1999/xlink">
<g id="graph0" class="graph" transform="scale(1 1) rotate(0) translate(36 1111.3374)">
<title>models_diagram</title>
<polygon fill="#ffffff" stroke="transparent" points="-36,36 -36,-1111.3374 864.2041,-1111.3374 864.2041,36 -36,36"/>
<!-- AnswerModel -->
<g id="node1" class="node">
<title>AnswerModel</title>
<polygon fill="#add8e6" stroke="transparent" points="698.3349,-953.8287 698.3349,-975.8287 798.3349,-975.8287 798.3349,-953.8287 698.3349,-953.8287"/>
<polygon fill="none" stroke="#000000" points="698.3349,-953.8287 698.3349,-975.8287 798.3349,-975.8287 798.3349,-953.8287 698.3349,-953.8287"/>
<text text-anchor="start" x="719.7339" y="-962.8287" font-family="Times,serif" font-weight="bold" font-size="10.00" fill="#000000">AnswerModel</text>
<polygon fill="none" stroke="#000000" points="698.3349,-931.8287 698.3349,-953.8287 798.3349,-953.8287 798.3349,-931.8287 698.3349,-931.8287"/>
<text text-anchor="start" x="703.3349" y="-940.8287" font-family="Times,serif" text-decoration="underline" font-size="10.00" fill="#000000">id</text>
<text text-anchor="start" x="711.1139" y="-940.8287" font-family="Times,serif" font-size="10.00" fill="#000000">: NUMBER</text>
<polygon fill="none" stroke="#000000" points="698.3349,-909.8287 698.3349,-931.8287 798.3349,-931.8287 798.3349,-909.8287 698.3349,-909.8287"/>
<text text-anchor="start" x="703.2009" y="-918.8287" font-family="Times,serif" font-style="italic" text-decoration="underline" font-size="10.00" fill="#000000">questionId</text>
<text text-anchor="start" x="745.4159" y="-918.8287" font-family="Times,serif" font-size="10.00" fill="#000000">: NUMBER</text>
<polygon fill="none" stroke="#000000" points="698.3349,-887.8287 698.3349,-909.8287 798.3349,-909.8287 798.3349,-887.8287 698.3349,-887.8287"/>
<text text-anchor="start" x="703.3349" y="-895.8287" font-family="Times,serif" font-size="10.00" fill="#000000">text: STRING</text>
<polygon fill="none" stroke="#000000" points="698.3349,-865.8287 698.3349,-887.8287 798.3349,-887.8287 798.3349,-865.8287 698.3349,-865.8287"/>
<text text-anchor="start" x="703.3349" y="-873.8287" font-family="Times,serif" font-size="10.00" fill="#000000">status: STRING</text>
<polygon fill="none" stroke="#000000" points="698.3349,-843.8287 698.3349,-865.8287 798.3349,-865.8287 798.3349,-843.8287 698.3349,-843.8287"/>
<text text-anchor="start" x="703.3349" y="-851.8287" font-family="Times,serif" font-size="10.00" fill="#000000">userId: NUMBER</text>
<polygon fill="none" stroke="#000000" points="698.3349,-821.8287 698.3349,-843.8287 798.3349,-843.8287 798.3349,-821.8287 698.3349,-821.8287"/>
<text text-anchor="start" x="703.3349" y="-829.8287" font-family="Times,serif" font-size="10.00" fill="#000000">createdAt: DATE</text>
<polygon fill="none" stroke="#000000" points="698.3349,-799.8287 698.3349,-821.8287 798.3349,-821.8287 798.3349,-799.8287 698.3349,-799.8287"/>
<text text-anchor="start" x="703.3349" y="-807.8287" font-family="Times,serif" font-size="10.00" fill="#000000">updatedAt: DATE</text>
</g>
<!-- AssessmentModel -->
<g id="node2" class="node">
<title>AssessmentModel</title>
<polygon fill="#add8e6" stroke="transparent" points="342.2746,-591.3164 342.2746,-613.3164 442.2746,-613.3164 442.2746,-591.3164 342.2746,-591.3164"/>
<polygon fill="none" stroke="#000000" points="342.2746,-591.3164 342.2746,-613.3164 442.2746,-613.3164 442.2746,-591.3164 342.2746,-591.3164"/>
<text text-anchor="start" x="355.6156" y="-600.3164" font-family="Times,serif" font-weight="bold" font-size="10.00" fill="#000000">AssessmentModel</text>
<polygon fill="none" stroke="#000000" points="342.2746,-569.3164 342.2746,-591.3164 442.2746,-591.3164 442.2746,-569.3164 342.2746,-569.3164"/>
<text text-anchor="start" x="347.2746" y="-578.3164" font-family="Times,serif" text-decoration="underline" font-size="10.00" fill="#000000">id</text>
<text text-anchor="start" x="355.0536" y="-578.3164" font-family="Times,serif" font-size="10.00" fill="#000000">: NUMBER</text>
<polygon fill="none" stroke="#000000" points="342.2746,-547.3164 342.2746,-569.3164 442.2746,-569.3164 442.2746,-547.3164 342.2746,-547.3164"/>
<text text-anchor="start" x="347.2746" y="-556.3164" font-family="Times,serif" font-style="italic" text-decoration="underline" font-size="10.00" fill="#000000">userId</text>
<text text-anchor="start" x="372.2606" y="-556.3164" font-family="Times,serif" font-size="10.00" fill="#000000">: NUMBER</text>
<polygon fill="none" stroke="#000000" points="342.2746,-525.3164 342.2746,-547.3164 442.2746,-547.3164 442.2746,-525.3164 342.2746,-525.3164"/>
<text text-anchor="start" x="346.8671" y="-534.3164" font-family="Times,serif" font-style="italic" text-decoration="underline" font-size="10.00" fill="#000000">templateId</text>
<text text-anchor="start" x="389.6291" y="-534.3164" font-family="Times,serif" font-size="10.00" fill="#000000">: NUMBER</text>
<polygon fill="none" stroke="#000000" points="342.2746,-503.3164 342.2746,-525.3164 442.2746,-525.3164 442.2746,-503.3164 342.2746,-503.3164"/>
<text text-anchor="start" x="347.2746" y="-511.3164" font-family="Times,serif" font-size="10.00" fill="#000000">name: STRING</text>
<polygon fill="none" stroke="#000000" points="342.2746,-481.3164 342.2746,-503.3164 442.2746,-503.3164 442.2746,-481.3164 342.2746,-481.3164"/>
<text text-anchor="start" x="347.2746" y="-489.3164" font-family="Times,serif" font-size="10.00" fill="#000000">status: STRING</text>
<polygon fill="none" stroke="#000000" points="342.2746,-459.3164 342.2746,-481.3164 442.2746,-481.3164 442.2746,-459.3164 342.2746,-459.3164"/>
<text text-anchor="start" x="347.2746" y="-467.3164" font-family="Times,serif" font-size="10.00" fill="#000000">createdAt: DATE</text>
<polygon fill="none" stroke="#000000" points="342.2746,-437.3164 342.2746,-459.3164 442.2746,-459.3164 442.2746,-437.3164 342.2746,-437.3164"/>
<text text-anchor="start" x="347.2746" y="-445.3164" font-family="Times,serif" font-size="10.00" fill="#000000">updatedAt: DATE</text>
</g>
<!-- GroupModel -->
<g id="node4" class="node">
<title>GroupModel</title>
<polygon fill="#add8e6" stroke="transparent" points="317.8878,-826.9669 317.8878,-848.9669 427.8878,-848.9669 427.8878,-826.9669 317.8878,-826.9669"/>
<polygon fill="none" stroke="#000000" points="317.8878,-826.9669 317.8878,-848.9669 427.8878,-848.9669 427.8878,-826.9669 317.8878,-826.9669"/>
<text text-anchor="start" x="347.0603" y="-835.9669" font-family="Times,serif" font-weight="bold" font-size="10.00" fill="#000000">GroupModel</text>
<polygon fill="none" stroke="#000000" points="317.8878,-804.9669 317.8878,-826.9669 427.8878,-826.9669 427.8878,-804.9669 317.8878,-804.9669"/>
<text text-anchor="start" x="322.8878" y="-813.9669" font-family="Times,serif" text-decoration="underline" font-size="10.00" fill="#000000">id</text>
<text text-anchor="start" x="330.6668" y="-813.9669" font-family="Times,serif" font-size="10.00" fill="#000000">: NUMBER</text>
<polygon fill="none" stroke="#000000" points="317.8878,-782.9669 317.8878,-804.9669 427.8878,-804.9669 427.8878,-782.9669 317.8878,-782.9669"/>
<text text-anchor="start" x="322.4813" y="-791.9669" font-family="Times,serif" font-style="italic" text-decoration="underline" font-size="10.00" fill="#000000">assessmentId</text>
<text text-anchor="start" x="375.2413" y="-791.9669" font-family="Times,serif" font-size="10.00" fill="#000000">: NUMBER</text>
<polygon fill="none" stroke="#000000" points="317.8878,-760.9669 317.8878,-782.9669 427.8878,-782.9669 427.8878,-760.9669 317.8878,-760.9669"/>
<text text-anchor="start" x="322.8878" y="-768.9669" font-family="Times,serif" font-size="10.00" fill="#000000">text: STRING</text>
<polygon fill="none" stroke="#000000" points="317.8878,-738.9669 317.8878,-760.9669 427.8878,-760.9669 427.8878,-738.9669 317.8878,-738.9669"/>
<text text-anchor="start" x="322.8878" y="-746.9669" font-family="Times,serif" font-size="10.00" fill="#000000">userId: NUMBER</text>
<polygon fill="none" stroke="#000000" points="317.8878,-716.9669 317.8878,-738.9669 427.8878,-738.9669 427.8878,-716.9669 317.8878,-716.9669"/>
<text text-anchor="start" x="322.8878" y="-724.9669" font-family="Times,serif" font-size="10.00" fill="#000000">status: STRING</text>
<polygon fill="none" stroke="#000000" points="317.8878,-694.9669 317.8878,-716.9669 427.8878,-716.9669 427.8878,-694.9669 317.8878,-694.9669"/>
<text text-anchor="start" x="322.8878" y="-702.9669" font-family="Times,serif" font-size="10.00" fill="#000000">createdAt: DATE</text>
<polygon fill="none" stroke="#000000" points="317.8878,-672.9669 317.8878,-694.9669 427.8878,-694.9669 427.8878,-672.9669 317.8878,-672.9669"/>
<text text-anchor="start" x="322.8878" y="-680.9669" font-family="Times,serif" font-size="10.00" fill="#000000">updatedAt: DATE</text>
</g>
<!-- AssessmentModel&#45;&gt;GroupModel -->
<g id="edge1" class="edge">
<title>AssessmentModel&#45;&gt;GroupModel</title>
<path fill="none" stroke="#00cd00" stroke-width=".75" d="M385.0281,-613.3991C383.6105,-630.6307 382.1181,-648.7705 380.6835,-666.2088"/>
<polygon fill="#00cd00" stroke="#00cd00" stroke-width=".75" points="380.6498,-666.6189 377.4669,-672.3773 380.4038,-669.6088 380.1578,-672.5987 380.1578,-672.5987 380.1578,-672.5987 380.4038,-669.6088 382.8487,-672.8201 380.6498,-666.6189 380.6498,-666.6189"/>
</g>
<!-- FileModel -->
<g id="node3" class="node">
<title>FileModel</title>
<polygon fill="#add8e6" stroke="transparent" points="7.6401,-970.4515 7.6401,-992.4515 113.6401,-992.4515 113.6401,-970.4515 7.6401,-970.4515"/>
<polygon fill="none" stroke="#000000" points="7.6401,-970.4515 7.6401,-992.4515 113.6401,-992.4515 113.6401,-970.4515 7.6401,-970.4515"/>
<text text-anchor="start" x="39.8086" y="-979.4515" font-family="Times,serif" font-weight="bold" font-size="10.00" fill="#000000">FileModel</text>
<polygon fill="none" stroke="#000000" points="7.6401,-948.4515 7.6401,-970.4515 113.6401,-970.4515 113.6401,-948.4515 7.6401,-948.4515"/>
<text text-anchor="start" x="12.6401" y="-957.4515" font-family="Times,serif" text-decoration="underline" font-size="10.00" fill="#000000">id</text>
<text text-anchor="start" x="20.4191" y="-957.4515" font-family="Times,serif" font-size="10.00" fill="#000000">: NUMBER</text>
<polygon fill="none" stroke="#000000" points="7.6401,-926.4515 7.6401,-948.4515 113.6401,-948.4515 113.6401,-926.4515 7.6401,-926.4515"/>
<text text-anchor="start" x="12.6401" y="-935.4515" font-family="Times,serif" font-style="italic" text-decoration="underline" font-size="10.00" fill="#000000">ownerId</text>
<text text-anchor="start" x="45.9561" y="-935.4515" font-family="Times,serif" font-size="10.00" fill="#000000">: NUMBER</text>
<polygon fill="none" stroke="#000000" points="7.6401,-904.4515 7.6401,-926.4515 113.6401,-926.4515 113.6401,-904.4515 7.6401,-904.4515"/>
<text text-anchor="start" x="12.6401" y="-912.4515" font-family="Times,serif" font-size="10.00" fill="#000000">owner: STRING</text>
<polygon fill="none" stroke="#000000" points="7.6401,-882.4515 7.6401,-904.4515 113.6401,-904.4515 113.6401,-882.4515 7.6401,-882.4515"/>
<text text-anchor="start" x="12.4581" y="-890.4515" font-family="Times,serif" font-size="10.00" fill="#000000">originalName: STRING</text>
<polygon fill="none" stroke="#000000" points="7.6401,-860.4515 7.6401,-882.4515 113.6401,-882.4515 113.6401,-860.4515 7.6401,-860.4515"/>
<text text-anchor="start" x="12.6401" y="-868.4515" font-family="Times,serif" font-size="10.00" fill="#000000">name: STRING</text>
<polygon fill="none" stroke="#000000" points="7.6401,-838.4515 7.6401,-860.4515 113.6401,-860.4515 113.6401,-838.4515 7.6401,-838.4515"/>
<text text-anchor="start" x="12.6401" y="-846.4515" font-family="Times,serif" font-size="10.00" fill="#000000">extension: STRING</text>
<polygon fill="none" stroke="#000000" points="7.6401,-816.4515 7.6401,-838.4515 113.6401,-838.4515 113.6401,-816.4515 7.6401,-816.4515"/>
<text text-anchor="start" x="12.6401" y="-824.4515" font-family="Times,serif" font-size="10.00" fill="#000000">mime: STRING</text>
<polygon fill="none" stroke="#000000" points="7.6401,-794.4515 7.6401,-816.4515 113.6401,-816.4515 113.6401,-794.4515 7.6401,-794.4515"/>
<text text-anchor="start" x="12.6401" y="-802.4515" font-family="Times,serif" font-size="10.00" fill="#000000">status: STRING</text>
<polygon fill="none" stroke="#000000" points="7.6401,-772.4515 7.6401,-794.4515 113.6401,-794.4515 113.6401,-772.4515 7.6401,-772.4515"/>
<text text-anchor="start" x="12.6401" y="-780.4515" font-family="Times,serif" font-size="10.00" fill="#000000">createdAt: DATE</text>
<polygon fill="none" stroke="#000000" points="7.6401,-750.4515 7.6401,-772.4515 113.6401,-772.4515 113.6401,-750.4515 7.6401,-750.4515"/>
<text text-anchor="start" x="12.6401" y="-758.4515" font-family="Times,serif" font-size="10.00" fill="#000000">updatedAt: DATE</text>
</g>
<!-- QuestionModel -->
<g id="node7" class="node">
<title>QuestionModel</title>
<polygon fill="#add8e6" stroke="transparent" points="346.0759,-1053.3374 346.0759,-1075.3374 435.0759,-1075.3374 435.0759,-1053.3374 346.0759,-1053.3374"/>
<polygon fill="none" stroke="#000000" points="346.0759,-1053.3374 346.0759,-1075.3374 435.0759,-1075.3374 435.0759,-1053.3374 346.0759,-1053.3374"/>
<text text-anchor="start" x="359.4699" y="-1062.3374" font-family="Times,serif" font-weight="bold" font-size="10.00" fill="#000000">QuestionModel</text>
<polygon fill="none" stroke="#000000" points="346.0759,-1031.3374 346.0759,-1053.3374 435.0759,-1053.3374 435.0759,-1031.3374 346.0759,-1031.3374"/>
<text text-anchor="start" x="351.0759" y="-1040.3374" font-family="Times,serif" text-decoration="underline" font-size="10.00" fill="#000000">id</text>
<text text-anchor="start" x="358.8549" y="-1040.3374" font-family="Times,serif" font-size="10.00" fill="#000000">: NUMBER</text>
<polygon fill="none" stroke="#000000" points="346.0759,-1009.3374 346.0759,-1031.3374 435.0759,-1031.3374 435.0759,-1009.3374 346.0759,-1009.3374"/>
<text text-anchor="start" x="350.7204" y="-1018.3374" font-family="Times,serif" font-style="italic" text-decoration="underline" font-size="10.00" fill="#000000">groupId</text>
<text text-anchor="start" x="382.3784" y="-1018.3374" font-family="Times,serif" font-size="10.00" fill="#000000">: NUMBER</text>
<polygon fill="none" stroke="#000000" points="346.0759,-987.3374 346.0759,-1009.3374 435.0759,-1009.3374 435.0759,-987.3374 346.0759,-987.3374"/>
<text text-anchor="start" x="351.0759" y="-995.3374" font-family="Times,serif" font-size="10.00" fill="#000000">text: STRING</text>
<polygon fill="none" stroke="#000000" points="346.0759,-965.3374 346.0759,-987.3374 435.0759,-987.3374 435.0759,-965.3374 346.0759,-965.3374"/>
<text text-anchor="start" x="351.0759" y="-973.3374" font-family="Times,serif" font-size="10.00" fill="#000000">userId: NUMBER</text>
<polygon fill="none" stroke="#000000" points="346.0759,-943.3374 346.0759,-965.3374 435.0759,-965.3374 435.0759,-943.3374 346.0759,-943.3374"/>
<text text-anchor="start" x="351.0759" y="-951.3374" font-family="Times,serif" font-size="10.00" fill="#000000">status: STRING</text>
<polygon fill="none" stroke="#000000" points="346.0759,-921.3374 346.0759,-943.3374 435.0759,-943.3374 435.0759,-921.3374 346.0759,-921.3374"/>
<text text-anchor="start" x="351.0759" y="-929.3374" font-family="Times,serif" font-size="10.00" fill="#000000">createdAt: DATE</text>
<polygon fill="none" stroke="#000000" points="346.0759,-899.3374 346.0759,-921.3374 435.0759,-921.3374 435.0759,-899.3374 346.0759,-899.3374"/>
<text text-anchor="start" x="351.0759" y="-907.3374" font-family="Times,serif" font-size="10.00" fill="#000000">updatedAt: DATE</text>
</g>
<!-- GroupModel&#45;&gt;QuestionModel -->
<g id="edge2" class="edge">
<title>GroupModel&#45;&gt;QuestionModel</title>
<path fill="none" stroke="#00cd00" stroke-width=".75" d="M379.5824,-849.1358C380.6711,-863.4743 381.8026,-878.3766 382.9022,-892.8587"/>
<polygon fill="#00cd00" stroke="#00cd00" stroke-width=".75" points="382.917,-893.0539 380.6791,-899.2412 383.1441,-896.0453 383.3713,-899.0367 383.3713,-899.0367 383.3713,-899.0367 383.1441,-896.0453 386.0636,-898.8322 382.917,-893.0539 382.917,-893.0539"/>
</g>
<!-- IndustryModel -->
<g id="node5" class="node">
<title>IndustryModel</title>
<polygon fill="#add8e6" stroke="transparent" points="745.7041,-181.7022 745.7041,-203.7022 828.7041,-203.7022 828.7041,-181.7022 745.7041,-181.7022"/>
<polygon fill="none" stroke="#000000" points="745.7041,-181.7022 745.7041,-203.7022 828.7041,-203.7022 828.7041,-181.7022 745.7041,-181.7022"/>
<text text-anchor="start" x="757.4876" y="-190.7022" font-family="Times,serif" font-weight="bold" font-size="10.00" fill="#000000">IndustryModel</text>
<polygon fill="none" stroke="#000000" points="745.7041,-159.7022 745.7041,-181.7022 828.7041,-181.7022 828.7041,-159.7022 745.7041,-159.7022"/>
<text text-anchor="start" x="750.7041" y="-168.7022" font-family="Times,serif" text-decoration="underline" font-size="10.00" fill="#000000">id</text>
<text text-anchor="start" x="758.4831" y="-168.7022" font-family="Times,serif" font-size="10.00" fill="#000000">: NUMBER</text>
<polygon fill="none" stroke="#000000" points="745.7041,-137.7022 745.7041,-159.7022 828.7041,-159.7022 828.7041,-137.7022 745.7041,-137.7022"/>
<text text-anchor="start" x="750.7041" y="-145.7022" font-family="Times,serif" font-size="10.00" fill="#000000">name: STRING</text>
<polygon fill="none" stroke="#000000" points="745.7041,-115.7022 745.7041,-137.7022 828.7041,-137.7022 828.7041,-115.7022 745.7041,-115.7022"/>
<text text-anchor="start" x="750.7041" y="-123.7022" font-family="Times,serif" font-size="10.00" fill="#000000">createdAt: DATE</text>
<polygon fill="none" stroke="#000000" points="745.7041,-93.7022 745.7041,-115.7022 828.7041,-115.7022 828.7041,-93.7022 745.7041,-93.7022"/>
<text text-anchor="start" x="750.4091" y="-101.7022" font-family="Times,serif" font-size="10.00" fill="#000000">updatedAt: DATE</text>
</g>
<!-- OrganisationModel -->
<g id="node6" class="node">
<title>OrganisationModel</title>
<polygon fill="#add8e6" stroke="transparent" points="431.3299,-330 431.3299,-352 561.3299,-352 561.3299,-330 431.3299,-330"/>
<polygon fill="none" stroke="#000000" points="431.3299,-330 431.3299,-352 561.3299,-352 561.3299,-330 431.3299,-330"/>
<text text-anchor="start" x="457.4504" y="-339" font-family="Times,serif" font-weight="bold" font-size="10.00" fill="#000000">OrganisationModel</text>
<polygon fill="none" stroke="#000000" points="431.3299,-308 431.3299,-330 561.3299,-330 561.3299,-308 431.3299,-308"/>
<text text-anchor="start" x="436.3299" y="-317" font-family="Times,serif" text-decoration="underline" font-size="10.00" fill="#000000">id</text>
<text text-anchor="start" x="444.1089" y="-317" font-family="Times,serif" font-size="10.00" fill="#000000">: NUMBER</text>
<polygon fill="none" stroke="#000000" points="431.3299,-286 431.3299,-308 561.3299,-308 561.3299,-286 431.3299,-286"/>
<text text-anchor="start" x="436.3299" y="-294" font-family="Times,serif" font-size="10.00" fill="#000000">name: STRING</text>
<polygon fill="none" stroke="#000000" points="431.3299,-264 431.3299,-286 561.3299,-286 561.3299,-264 431.3299,-264"/>
<text text-anchor="start" x="436.3299" y="-272" font-family="Times,serif" font-size="10.00" fill="#000000">website: STRING</text>
<polygon fill="none" stroke="#000000" points="431.3299,-242 431.3299,-264 561.3299,-264 561.3299,-242 431.3299,-242"/>
<text text-anchor="start" x="436.3299" y="-250" font-family="Times,serif" font-size="10.00" fill="#000000">entityType: STRING</text>
<polygon fill="none" stroke="#000000" points="431.3299,-220 431.3299,-242 561.3299,-242 561.3299,-220 431.3299,-220"/>
<text text-anchor="start" x="436.3299" y="-228" font-family="Times,serif" font-size="10.00" fill="#000000">industryId: NUMBER</text>
<polygon fill="none" stroke="#000000" points="431.3299,-198 431.3299,-220 561.3299,-220 561.3299,-198 431.3299,-198"/>
<text text-anchor="start" x="436.2094" y="-206" font-family="Times,serif" font-size="10.00" fill="#000000">registeredNumber: NUMBER</text>
<polygon fill="none" stroke="#000000" points="431.3299,-176 431.3299,-198 561.3299,-198 561.3299,-176 431.3299,-176"/>
<text text-anchor="start" x="436.3299" y="-184" font-family="Times,serif" font-size="10.00" fill="#000000">street: STRING</text>
<polygon fill="none" stroke="#000000" points="431.3299,-154 431.3299,-176 561.3299,-176 561.3299,-154 431.3299,-154"/>
<text text-anchor="start" x="436.3299" y="-162" font-family="Times,serif" font-size="10.00" fill="#000000">cityOrTown: STRING</text>
<polygon fill="none" stroke="#000000" points="431.3299,-132 431.3299,-154 561.3299,-154 561.3299,-132 431.3299,-132"/>
<text text-anchor="start" x="436.3299" y="-140" font-family="Times,serif" font-size="10.00" fill="#000000">countryOrState: STRING</text>
<polygon fill="none" stroke="#000000" points="431.3299,-110 431.3299,-132 561.3299,-132 561.3299,-110 431.3299,-110"/>
<text text-anchor="start" x="436.3299" y="-118" font-family="Times,serif" font-size="10.00" fill="#000000">postCode: NUMBER</text>
<polygon fill="none" stroke="#000000" points="431.3299,-88 431.3299,-110 561.3299,-110 561.3299,-88 431.3299,-88"/>
<text text-anchor="start" x="436.3299" y="-96" font-family="Times,serif" font-size="10.00" fill="#000000">country: STRING</text>
<polygon fill="none" stroke="#000000" points="431.3299,-66 431.3299,-88 561.3299,-88 561.3299,-66 431.3299,-66"/>
<text text-anchor="start" x="436.3299" y="-74" font-family="Times,serif" font-size="10.00" fill="#000000">size: STRING</text>
<polygon fill="none" stroke="#000000" points="431.3299,-44 431.3299,-66 561.3299,-66 561.3299,-44 431.3299,-44"/>
<text text-anchor="start" x="436.3299" y="-52" font-family="Times,serif" font-size="10.00" fill="#000000">status: STRING</text>
<polygon fill="none" stroke="#000000" points="431.3299,-22 431.3299,-44 561.3299,-44 561.3299,-22 431.3299,-22"/>
<text text-anchor="start" x="436.3299" y="-30" font-family="Times,serif" font-size="10.00" fill="#000000">createdAt: DATE</text>
<polygon fill="none" stroke="#000000" points="431.3299,0 431.3299,-22 561.3299,-22 561.3299,0 431.3299,0"/>
<text text-anchor="start" x="436.3299" y="-8" font-family="Times,serif" font-size="10.00" fill="#000000">updatedAt: DATE</text>
</g>
<!-- OrganisationModel&#45;&gt;IndustryModel -->
<g id="edge9" class="edge">
<title>OrganisationModel&#45;&gt;IndustryModel</title>
<path fill="none" stroke="#00cd00" stroke-width=".75" d="M561.4956,-169.8738C617.6784,-164.5922 697.1105,-157.1248 745.0813,-152.6151"/>
</g>
<!-- QuestionModel&#45;&gt;AnswerModel -->
<g id="edge3" class="edge">
<title>QuestionModel&#45;&gt;AnswerModel</title>
<path fill="none" stroke="#00cd00" stroke-width=".75" d="M434.7253,-974.9358C499.9492,-956.8194 621.2302,-923.1329 692.3418,-903.3812"/>
<polygon fill="#00cd00" stroke="#00cd00" stroke-width=".75" points="692.4367,-903.3549 698.9404,-904.3506 695.3273,-902.552 698.2178,-901.7491 698.2178,-901.7491 698.2178,-901.7491 695.3273,-902.552 697.4952,-899.1476 692.4367,-903.3549 692.4367,-903.3549"/>
</g>
<!-- QuestionModel&#45;&gt;FileModel -->
<g id="edge4" class="edge">
<title>QuestionModel&#45;&gt;FileModel</title>
<path fill="none" stroke="#00cd00" stroke-width=".75" d="M345.3039,-971.5879C286.8147,-951.0131 184.2561,-914.936 119.5228,-892.1647"/>
<polygon fill="#00cd00" stroke="#00cd00" stroke-width=".75" points="119.4273,-892.1312 114.6633,-887.5931 116.5973,-891.1356 113.7673,-890.1401 113.7673,-890.1401 113.7673,-890.1401 116.5973,-891.1356 112.8713,-892.6871 119.4273,-892.1312 119.4273,-892.1312"/>
</g>
<!-- TemplateGroupModel -->
<g id="node8" class="node">
<title>TemplateGroupModel</title>
<polygon fill="#add8e6" stroke="transparent" points="0,-446.9064 0,-468.9064 100,-468.9064 100,-446.9064 0,-446.9064"/>
<polygon fill="none" stroke="#000000" points="0,-446.9064 0,-468.9064 100,-468.9064 100,-446.9064 0,-446.9064"/>
<text text-anchor="start" x="5.291" y="-455.9064" font-family="Times,serif" font-weight="bold" font-size="10.00" fill="#000000">TemplateGroupModel</text>
<polygon fill="none" stroke="#000000" points="0,-424.9064 0,-446.9064 100,-446.9064 100,-424.9064 0,-424.9064"/>
<text text-anchor="start" x="5" y="-433.9064" font-family="Times,serif" text-decoration="underline" font-size="10.00" fill="#000000">id</text>
<text text-anchor="start" x="12.779" y="-433.9064" font-family="Times,serif" font-size="10.00" fill="#000000">: NUMBER</text>
<polygon fill="none" stroke="#000000" points="0,-402.9064 0,-424.9064 100,-424.9064 100,-402.9064 0,-402.9064"/>
<text text-anchor="start" x="4.5925" y="-411.9064" font-family="Times,serif" font-style="italic" text-decoration="underline" font-size="10.00" fill="#000000">templateId</text>
<text text-anchor="start" x="47.3545" y="-411.9064" font-family="Times,serif" font-size="10.00" fill="#000000">: NUMBER</text>
<polygon fill="none" stroke="#000000" points="0,-380.9064 0,-402.9064 100,-402.9064 100,-380.9064 0,-380.9064"/>
<text text-anchor="start" x="5" y="-388.9064" font-family="Times,serif" font-size="10.00" fill="#000000">text: STRING</text>
<polygon fill="none" stroke="#000000" points="0,-358.9064 0,-380.9064 100,-380.9064 100,-358.9064 0,-358.9064"/>
<text text-anchor="start" x="5" y="-366.9064" font-family="Times,serif" font-size="10.00" fill="#000000">status: STRING</text>
<polygon fill="none" stroke="#000000" points="0,-336.9064 0,-358.9064 100,-358.9064 100,-336.9064 0,-336.9064"/>
<text text-anchor="start" x="5" y="-344.9064" font-family="Times,serif" font-size="10.00" fill="#000000">createdAt: DATE</text>
<polygon fill="none" stroke="#000000" points="0,-314.9064 0,-336.9064 100,-336.9064 100,-314.9064 0,-314.9064"/>
<text text-anchor="start" x="5" y="-322.9064" font-family="Times,serif" font-size="10.00" fill="#000000">updatedAt: DATE</text>
</g>
<!-- TemplateQuestionModel -->
<g id="node10" class="node">
<title>TemplateQuestionModel</title>
<polygon fill="#add8e6" stroke="transparent" points="97.9922,-184.7075 97.9922,-206.7075 206.9922,-206.7075 206.9922,-184.7075 97.9922,-184.7075"/>
<polygon fill="none" stroke="#000000" points="97.9922,-184.7075 97.9922,-206.7075 206.9922,-206.7075 206.9922,-184.7075 97.9922,-184.7075"/>
<text text-anchor="start" x="102.5047" y="-193.7075" font-family="Times,serif" font-weight="bold" font-size="10.00" fill="#000000">TemplateQuestionModel</text>
<polygon fill="none" stroke="#000000" points="97.9922,-162.7075 97.9922,-184.7075 206.9922,-184.7075 206.9922,-162.7075 97.9922,-162.7075"/>
<text text-anchor="start" x="102.9922" y="-171.7075" font-family="Times,serif" text-decoration="underline" font-size="10.00" fill="#000000">id</text>
<text text-anchor="start" x="110.7712" y="-171.7075" font-family="Times,serif" font-size="10.00" fill="#000000">: NUMBER</text>
<polygon fill="none" stroke="#000000" points="97.9922,-140.7075 97.9922,-162.7075 206.9922,-162.7075 206.9922,-140.7075 97.9922,-140.7075"/>
<text text-anchor="start" x="102.9922" y="-149.7075" font-family="Times,serif" font-style="italic" text-decoration="underline" font-size="10.00" fill="#000000">groupId</text>
<text text-anchor="start" x="134.6502" y="-149.7075" font-family="Times,serif" font-size="10.00" fill="#000000">: NUMBER</text>
<polygon fill="none" stroke="#000000" points="97.9922,-118.7075 97.9922,-140.7075 206.9922,-140.7075 206.9922,-118.7075 97.9922,-118.7075"/>
<text text-anchor="start" x="102.9922" y="-126.7075" font-family="Times,serif" font-size="10.00" fill="#000000">text: STRING</text>
<polygon fill="none" stroke="#000000" points="97.9922,-96.7075 97.9922,-118.7075 206.9922,-118.7075 206.9922,-96.7075 97.9922,-96.7075"/>
<text text-anchor="start" x="102.9922" y="-104.7075" font-family="Times,serif" font-size="10.00" fill="#000000">status: STRING</text>
<polygon fill="none" stroke="#000000" points="97.9922,-74.7075 97.9922,-96.7075 206.9922,-96.7075 206.9922,-74.7075 97.9922,-74.7075"/>
<text text-anchor="start" x="102.9922" y="-82.7075" font-family="Times,serif" font-size="10.00" fill="#000000">createdAt: DATE</text>
<polygon fill="none" stroke="#000000" points="97.9922,-52.7075 97.9922,-74.7075 206.9922,-74.7075 206.9922,-52.7075 97.9922,-52.7075"/>
<text text-anchor="start" x="102.9922" y="-60.7075" font-family="Times,serif" font-size="10.00" fill="#000000">updatedAt: DATE</text>
</g>
<!-- TemplateGroupModel&#45;&gt;TemplateQuestionModel -->
<g id="edge5" class="edge">
<title>TemplateGroupModel&#45;&gt;TemplateQuestionModel</title>
<path fill="none" stroke="#00cd00" stroke-width=".75" d="M80.0494,-314.6562C92.5474,-282.5267 107.077,-245.1743 119.7935,-212.4832"/>
<polygon fill="#00cd00" stroke="#00cd00" stroke-width=".75" points="119.8063,-212.4501 124.4978,-207.8371 120.8939,-209.6542 121.9815,-206.8582 121.9815,-206.8582 121.9815,-206.8582 120.8939,-209.6542 119.4652,-205.8794 119.8063,-212.4501 119.8063,-212.4501"/>
</g>
<!-- TemplateModel -->
<g id="node9" class="node">
<title>TemplateModel</title>
<polygon fill="#add8e6" stroke="transparent" points="161.6186,-561.7937 161.6186,-583.7937 244.6186,-583.7937 244.6186,-561.7937 161.6186,-561.7937"/>
<polygon fill="none" stroke="#000000" points="161.6186,-561.7937 161.6186,-583.7937 244.6186,-583.7937 244.6186,-561.7937 161.6186,-561.7937"/>
<text text-anchor="start" x="171.1836" y="-570.7937" font-family="Times,serif" font-weight="bold" font-size="10.00" fill="#000000">TemplateModel</text>
<polygon fill="none" stroke="#000000" points="161.6186,-539.7937 161.6186,-561.7937 244.6186,-561.7937 244.6186,-539.7937 161.6186,-539.7937"/>
<text text-anchor="start" x="166.6186" y="-548.7937" font-family="Times,serif" text-decoration="underline" font-size="10.00" fill="#000000">id</text>
<text text-anchor="start" x="174.3976" y="-548.7937" font-family="Times,serif" font-size="10.00" fill="#000000">: NUMBER</text>
<polygon fill="none" stroke="#000000" points="161.6186,-517.7937 161.6186,-539.7937 244.6186,-539.7937 244.6186,-517.7937 161.6186,-517.7937"/>
<text text-anchor="start" x="166.6186" y="-525.7937" font-family="Times,serif" font-size="10.00" fill="#000000">name: STRING</text>
<polygon fill="none" stroke="#000000" points="161.6186,-495.7937 161.6186,-517.7937 244.6186,-517.7937 244.6186,-495.7937 161.6186,-495.7937"/>
<text text-anchor="start" x="166.6186" y="-503.7937" font-family="Times,serif" font-size="10.00" fill="#000000">status: STRING</text>
<polygon fill="none" stroke="#000000" points="161.6186,-473.7937 161.6186,-495.7937 244.6186,-495.7937 244.6186,-473.7937 161.6186,-473.7937"/>
<text text-anchor="start" x="166.6186" y="-481.7937" font-family="Times,serif" font-size="10.00" fill="#000000">createdAt: DATE</text>
<polygon fill="none" stroke="#000000" points="161.6186,-451.7937 161.6186,-473.7937 244.6186,-473.7937 244.6186,-451.7937 161.6186,-451.7937"/>
<text text-anchor="start" x="166.3236" y="-459.7937" font-family="Times,serif" font-size="10.00" fill="#000000">updatedAt: DATE</text>
</g>
<!-- TemplateModel&#45;&gt;AssessmentModel -->
<g id="edge6" class="edge">
<title>TemplateModel&#45;&gt;AssessmentModel</title>
<path fill="none" stroke="#00cd00" stroke-width=".75" d="M244.2394,-519.4446C271.1143,-520.5106 306.4192,-521.911 335.8102,-523.0768"/>
<polygon fill="#00cd00" stroke="#00cd00" stroke-width=".75" points="335.9918,-523.0839 341.88,-526.0196 338.9894,-523.2028 341.987,-523.3218 341.987,-523.3218 341.987,-523.3218 338.9894,-523.2028 342.0941,-520.6239 335.9918,-523.0839 335.9918,-523.0839"/>
</g>
<!-- TemplateModel&#45;&gt;TemplateGroupModel -->
<g id="edge7" class="edge">
<title>TemplateModel&#45;&gt;TemplateGroupModel</title>
<path fill="none" stroke="#00cd00" stroke-width=".75" d="M160.9149,-483.3945C143.5848,-469.0998 123.2337,-452.3131 104.7277,-437.0485"/>
<polygon fill="#00cd00" stroke="#00cd00" stroke-width=".75" points="104.6941,-437.0208 101.7836,-431.12 102.3798,-435.1118 100.0655,-433.2029 100.0655,-433.2029 100.0655,-433.2029 102.3798,-435.1118 98.3474,-435.2857 104.6941,-437.0208 104.6941,-437.0208"/>
</g>
<!-- UserInfoModel -->
<g id="node11" class="node">
<title>UserInfoModel</title>
<polygon fill="#add8e6" stroke="transparent" points="685.6784,-517.1882 685.6784,-539.1882 800.6784,-539.1882 800.6784,-517.1882 685.6784,-517.1882"/>
<polygon fill="none" stroke="#000000" points="685.6784,-517.1882 685.6784,-539.1882 800.6784,-539.1882 800.6784,-517.1882 685.6784,-517.1882"/>
<text text-anchor="start" x="712.3579" y="-526.1882" font-family="Times,serif" font-weight="bold" font-size="10.00" fill="#000000">UserInfoModel</text>
<polygon fill="none" stroke="#000000" points="685.6784,-495.1882 685.6784,-517.1882 800.6784,-517.1882 800.6784,-495.1882 685.6784,-495.1882"/>
<text text-anchor="start" x="690.6784" y="-504.1882" font-family="Times,serif" text-decoration="underline" font-size="10.00" fill="#000000">id</text>
<text text-anchor="start" x="698.4574" y="-504.1882" font-family="Times,serif" font-size="10.00" fill="#000000">: NUMBER</text>
<polygon fill="none" stroke="#000000" points="685.6784,-473.1882 685.6784,-495.1882 800.6784,-495.1882 800.6784,-473.1882 685.6784,-473.1882"/>
<text text-anchor="start" x="690.6784" y="-482.1882" font-family="Times,serif" font-style="italic" text-decoration="underline" font-size="10.00" fill="#000000">userId</text>
<text text-anchor="start" x="715.6644" y="-482.1882" font-family="Times,serif" font-size="10.00" fill="#000000">: NUMBER</text>
<polygon fill="none" stroke="#000000" points="685.6784,-451.1882 685.6784,-473.1882 800.6784,-473.1882 800.6784,-451.1882 685.6784,-451.1882"/>
<text text-anchor="start" x="690.6784" y="-459.1882" font-family="Times,serif" font-size="10.00" fill="#000000">firstName: STRING</text>
<polygon fill="none" stroke="#000000" points="685.6784,-429.1882 685.6784,-451.1882 800.6784,-451.1882 800.6784,-429.1882 685.6784,-429.1882"/>
<text text-anchor="start" x="690.6784" y="-437.1882" font-family="Times,serif" font-size="10.00" fill="#000000">middleName: STRING</text>
<polygon fill="none" stroke="#000000" points="685.6784,-407.1882 685.6784,-429.1882 800.6784,-429.1882 800.6784,-407.1882 685.6784,-407.1882"/>
<text text-anchor="start" x="690.6784" y="-415.1882" font-family="Times,serif" font-size="10.00" fill="#000000">lastName: STRING</text>
<polygon fill="none" stroke="#000000" points="685.6784,-385.1882 685.6784,-407.1882 800.6784,-407.1882 800.6784,-385.1882 685.6784,-385.1882"/>
<text text-anchor="start" x="690.2709" y="-393.1882" font-family="Times,serif" font-size="10.00" fill="#000000">organisationId: NUMBER</text>
<polygon fill="none" stroke="#000000" points="685.6784,-363.1882 685.6784,-385.1882 800.6784,-385.1882 800.6784,-363.1882 685.6784,-363.1882"/>
<text text-anchor="start" x="690.6784" y="-371.1882" font-family="Times,serif" font-size="10.00" fill="#000000">dateOfBirth: DATE</text>
<polygon fill="none" stroke="#000000" points="685.6784,-341.1882 685.6784,-363.1882 800.6784,-363.1882 800.6784,-341.1882 685.6784,-341.1882"/>
<text text-anchor="start" x="690.6784" y="-349.1882" font-family="Times,serif" font-size="10.00" fill="#000000">createdAt: DATE</text>
<polygon fill="none" stroke="#000000" points="685.6784,-319.1882 685.6784,-341.1882 800.6784,-341.1882 800.6784,-319.1882 685.6784,-319.1882"/>
<text text-anchor="start" x="690.6784" y="-327.1882" font-family="Times,serif" font-size="10.00" fill="#000000">updatedAt: DATE</text>
</g>
<!-- UserInfoModel&#45;&gt;OrganisationModel -->
<g id="edge10" class="edge">
<title>UserInfoModel&#45;&gt;OrganisationModel</title>
<path fill="none" stroke="#00cd00" stroke-width=".75" d="M684.9207,-369.8268C647.9452,-331.8248 599.8904,-282.4357 561.5437,-243.0244"/>
</g>
<!-- UserModel -->
<g id="node12" class="node">
<title>UserModel</title>
<polygon fill="#add8e6" stroke="transparent" points="575.6802,-678.5039 575.6802,-700.5039 664.6802,-700.5039 664.6802,-678.5039 575.6802,-678.5039"/>
<polygon fill="none" stroke="#000000" points="575.6802,-678.5039 575.6802,-700.5039 664.6802,-700.5039 664.6802,-678.5039 575.6802,-678.5039"/>
<text text-anchor="start" x="597.6887" y="-687.5039" font-family="Times,serif" font-weight="bold" font-size="10.00" fill="#000000">UserModel</text>
<polygon fill="none" stroke="#000000" points="575.6802,-656.5039 575.6802,-678.5039 664.6802,-678.5039 664.6802,-656.5039 575.6802,-656.5039"/>
<text text-anchor="start" x="580.6802" y="-665.5039" font-family="Times,serif" text-decoration="underline" font-size="10.00" fill="#000000">id</text>
<text text-anchor="start" x="588.4592" y="-665.5039" font-family="Times,serif" font-size="10.00" fill="#000000">: NUMBER</text>
<polygon fill="none" stroke="#000000" points="575.6802,-634.5039 575.6802,-656.5039 664.6802,-656.5039 664.6802,-634.5039 575.6802,-634.5039"/>
<text text-anchor="start" x="580.6802" y="-642.5039" font-family="Times,serif" font-size="10.00" fill="#000000">email: TEXT</text>
<polygon fill="none" stroke="#000000" points="575.6802,-612.5039 575.6802,-634.5039 664.6802,-634.5039 664.6802,-612.5039 575.6802,-612.5039"/>
<text text-anchor="start" x="580.6062" y="-620.5039" font-family="Times,serif" font-size="10.00" fill="#000000">password: STRING</text>
<polygon fill="none" stroke="#000000" points="575.6802,-590.5039 575.6802,-612.5039 664.6802,-612.5039 664.6802,-590.5039 575.6802,-590.5039"/>
<text text-anchor="start" x="580.6802" y="-598.5039" font-family="Times,serif" font-size="10.00" fill="#000000">role: STRING</text>
<polygon fill="none" stroke="#000000" points="575.6802,-568.5039 575.6802,-590.5039 664.6802,-590.5039 664.6802,-568.5039 575.6802,-568.5039"/>
<text text-anchor="start" x="580.6802" y="-576.5039" font-family="Times,serif" font-size="10.00" fill="#000000">status: STRING</text>
<polygon fill="none" stroke="#000000" points="575.6802,-546.5039 575.6802,-568.5039 664.6802,-568.5039 664.6802,-546.5039 575.6802,-546.5039"/>
<text text-anchor="start" x="580.6802" y="-554.5039" font-family="Times,serif" font-size="10.00" fill="#000000">plan: STRING</text>
<polygon fill="none" stroke="#000000" points="575.6802,-524.5039 575.6802,-546.5039 664.6802,-546.5039 664.6802,-524.5039 575.6802,-524.5039"/>
<text text-anchor="start" x="580.6802" y="-532.5039" font-family="Times,serif" font-size="10.00" fill="#000000">createdAt: DATE</text>
<polygon fill="none" stroke="#000000" points="575.6802,-502.5039 575.6802,-524.5039 664.6802,-524.5039 664.6802,-502.5039 575.6802,-502.5039"/>
<text text-anchor="start" x="580.6802" y="-510.5039" font-family="Times,serif" font-size="10.00" fill="#000000">updatedAt: DATE</text>
</g>
<!-- UserModel&#45;&gt;AssessmentModel -->
<g id="edge8" class="edge">
<title>UserModel&#45;&gt;AssessmentModel</title>
<path fill="none" stroke="#00cd00" stroke-width=".75" d="M575.0235,-586.5426C538.8033,-574.4078 487.539,-557.2328 448.5201,-544.1603"/>
<polygon fill="#00cd00" stroke="#00cd00" stroke-width=".75" points="448.0564,-544.005 443.2249,-539.5387 445.2118,-543.0519 442.3672,-542.0989 442.3672,-542.0989 442.3672,-542.0989 445.2118,-543.0519 441.5094,-544.659 448.0564,-544.005 448.0564,-544.005"/>
</g>
<!-- UserModel&#45;&gt;UserInfoModel -->
<g id="edge11" class="edge">
<title>UserModel&#45;&gt;UserInfoModel</title>
<path fill="none" stroke="#00cd00" stroke-width=".75" d="M664.4333,-538.8066C671.1647,-529.3761 678.1859,-519.5397 685.1393,-509.7983"/>
</g>
</g>
</svg>
