<?xml version="1.0" encoding="UTF-8" standalone="no"?>
<!DOCTYPE svg PUBLIC "-//W3C//DTD SVG 1.1//EN"
 "http://www.w3.org/Graphics/SVG/1.1/DTD/svg11.dtd">
<!-- Generated by graphviz version 2.40.1 (20161225.0304)
 -->
<!-- Title: models_diagram Pages: 1 -->
<svg width="1068pt" height="1341pt"
 viewBox="0.00 0.00 1067.97 1341.01" xmlns="http://www.w3.org/2000/svg" xmlns:xlink="http://www.w3.org/1999/xlink">
<g id="graph0" class="graph" transform="scale(1 1) rotate(0) translate(36 1305.006)">
<title>models_diagram</title>
<polygon fill="#ffffff" stroke="transparent" points="-36,36 -36,-1305.006 1031.9671,-1305.006 1031.9671,36 -36,36"/>
<!-- AnswerModel -->
<g id="node1" class="node">
<title>AnswerModel</title>
<polygon fill="#add8e6" stroke="transparent" points="888.6903,-1060.3427 888.6903,-1082.3427 988.6903,-1082.3427 988.6903,-1060.3427 888.6903,-1060.3427"/>
<polygon fill="none" stroke="#000000" points="888.6903,-1060.3427 888.6903,-1082.3427 988.6903,-1082.3427 988.6903,-1060.3427 888.6903,-1060.3427"/>
<text text-anchor="start" x="910.0893" y="-1069.3427" font-family="Times,serif" font-weight="bold" font-size="10.00" fill="#000000">AnswerModel</text>
<polygon fill="none" stroke="#000000" points="888.6903,-1038.3427 888.6903,-1060.3427 988.6903,-1060.3427 988.6903,-1038.3427 888.6903,-1038.3427"/>
<text text-anchor="start" x="893.6903" y="-1047.3427" font-family="Times,serif" text-decoration="underline" font-size="10.00" fill="#000000">id</text>
<text text-anchor="start" x="901.4693" y="-1047.3427" font-family="Times,serif" font-size="10.00" fill="#000000">: NUMBER</text>
<polygon fill="none" stroke="#000000" points="888.6903,-1016.3427 888.6903,-1038.3427 988.6903,-1038.3427 988.6903,-1016.3427 888.6903,-1016.3427"/>
<text text-anchor="start" x="893.5563" y="-1025.3427" font-family="Times,serif" font-style="italic" text-decoration="underline" font-size="10.00" fill="#000000">questionId</text>
<text text-anchor="start" x="935.7713" y="-1025.3427" font-family="Times,serif" font-size="10.00" fill="#000000">: NUMBER</text>
<polygon fill="none" stroke="#000000" points="888.6903,-994.3427 888.6903,-1016.3427 988.6903,-1016.3427 988.6903,-994.3427 888.6903,-994.3427"/>
<text text-anchor="start" x="893.6903" y="-1002.3427" font-family="Times,serif" font-size="10.00" fill="#000000">text: STRING</text>
<polygon fill="none" stroke="#000000" points="888.6903,-972.3427 888.6903,-994.3427 988.6903,-994.3427 988.6903,-972.3427 888.6903,-972.3427"/>
<text text-anchor="start" x="893.6903" y="-980.3427" font-family="Times,serif" font-size="10.00" fill="#000000">status: STRING</text>
<polygon fill="none" stroke="#000000" points="888.6903,-950.3427 888.6903,-972.3427 988.6903,-972.3427 988.6903,-950.3427 888.6903,-950.3427"/>
<text text-anchor="start" x="893.6903" y="-958.3427" font-family="Times,serif" font-size="10.00" fill="#000000">userId: NUMBER</text>
<polygon fill="none" stroke="#000000" points="888.6903,-928.3427 888.6903,-950.3427 988.6903,-950.3427 988.6903,-928.3427 888.6903,-928.3427"/>
<text text-anchor="start" x="893.6903" y="-936.3427" font-family="Times,serif" font-size="10.00" fill="#000000">createdAt: DATE</text>
<polygon fill="none" stroke="#000000" points="888.6903,-906.3427 888.6903,-928.3427 988.6903,-928.3427 988.6903,-906.3427 888.6903,-906.3427"/>
<text text-anchor="start" x="893.6903" y="-914.3427" font-family="Times,serif" font-size="10.00" fill="#000000">updatedAt: DATE</text>
</g>
<!-- AssessmentModel -->
<g id="node2" class="node">
<title>AssessmentModel</title>
<polygon fill="#add8e6" stroke="transparent" points="494.6947,-779.9767 494.6947,-801.9767 594.6947,-801.9767 594.6947,-779.9767 494.6947,-779.9767"/>
<polygon fill="none" stroke="#000000" points="494.6947,-779.9767 494.6947,-801.9767 594.6947,-801.9767 594.6947,-779.9767 494.6947,-779.9767"/>
<text text-anchor="start" x="508.0357" y="-788.9767" font-family="Times,serif" font-weight="bold" font-size="10.00" fill="#000000">AssessmentModel</text>
<polygon fill="none" stroke="#000000" points="494.6947,-757.9767 494.6947,-779.9767 594.6947,-779.9767 594.6947,-757.9767 494.6947,-757.9767"/>
<text text-anchor="start" x="499.6947" y="-766.9767" font-family="Times,serif" text-decoration="underline" font-size="10.00" fill="#000000">id</text>
<text text-anchor="start" x="507.4737" y="-766.9767" font-family="Times,serif" font-size="10.00" fill="#000000">: NUMBER</text>
<polygon fill="none" stroke="#000000" points="494.6947,-735.9767 494.6947,-757.9767 594.6947,-757.9767 594.6947,-735.9767 494.6947,-735.9767"/>
<text text-anchor="start" x="499.6947" y="-744.9767" font-family="Times,serif" font-style="italic" text-decoration="underline" font-size="10.00" fill="#000000">userId</text>
<text text-anchor="start" x="524.6807" y="-744.9767" font-family="Times,serif" font-size="10.00" fill="#000000">: NUMBER</text>
<polygon fill="none" stroke="#000000" points="494.6947,-713.9767 494.6947,-735.9767 594.6947,-735.9767 594.6947,-713.9767 494.6947,-713.9767"/>
<text text-anchor="start" x="499.2872" y="-722.9767" font-family="Times,serif" font-style="italic" text-decoration="underline" font-size="10.00" fill="#000000">templateId</text>
<text text-anchor="start" x="542.0492" y="-722.9767" font-family="Times,serif" font-size="10.00" fill="#000000">: NUMBER</text>
<polygon fill="none" stroke="#000000" points="494.6947,-691.9767 494.6947,-713.9767 594.6947,-713.9767 594.6947,-691.9767 494.6947,-691.9767"/>
<text text-anchor="start" x="499.6947" y="-699.9767" font-family="Times,serif" font-size="10.00" fill="#000000">name: STRING</text>
<polygon fill="none" stroke="#000000" points="494.6947,-669.9767 494.6947,-691.9767 594.6947,-691.9767 594.6947,-669.9767 494.6947,-669.9767"/>
<text text-anchor="start" x="499.6947" y="-677.9767" font-family="Times,serif" font-size="10.00" fill="#000000">status: STRING</text>
<polygon fill="none" stroke="#000000" points="494.6947,-647.9767 494.6947,-669.9767 594.6947,-669.9767 594.6947,-647.9767 494.6947,-647.9767"/>
<text text-anchor="start" x="499.6947" y="-655.9767" font-family="Times,serif" font-size="10.00" fill="#000000">createdAt: DATE</text>
<polygon fill="none" stroke="#000000" points="494.6947,-625.9767 494.6947,-647.9767 594.6947,-647.9767 594.6947,-625.9767 494.6947,-625.9767"/>
<text text-anchor="start" x="499.6947" y="-633.9767" font-family="Times,serif" font-size="10.00" fill="#000000">updatedAt: DATE</text>
</g>
<!-- GroupModel -->
<g id="node5" class="node">
<title>GroupModel</title>
<polygon fill="#add8e6" stroke="transparent" points="534.7806,-973.8719 534.7806,-995.8719 644.7806,-995.8719 644.7806,-973.8719 534.7806,-973.8719"/>
<polygon fill="none" stroke="#000000" points="534.7806,-973.8719 534.7806,-995.8719 644.7806,-995.8719 644.7806,-973.8719 534.7806,-973.8719"/>
<text text-anchor="start" x="563.9531" y="-982.8719" font-family="Times,serif" font-weight="bold" font-size="10.00" fill="#000000">GroupModel</text>
<polygon fill="none" stroke="#000000" points="534.7806,-951.8719 534.7806,-973.8719 644.7806,-973.8719 644.7806,-951.8719 534.7806,-951.8719"/>
<text text-anchor="start" x="539.7806" y="-960.8719" font-family="Times,serif" text-decoration="underline" font-size="10.00" fill="#000000">id</text>
<text text-anchor="start" x="547.5596" y="-960.8719" font-family="Times,serif" font-size="10.00" fill="#000000">: NUMBER</text>
<polygon fill="none" stroke="#000000" points="534.7806,-929.8719 534.7806,-951.8719 644.7806,-951.8719 644.7806,-929.8719 534.7806,-929.8719"/>
<text text-anchor="start" x="539.3741" y="-938.8719" font-family="Times,serif" font-style="italic" text-decoration="underline" font-size="10.00" fill="#000000">assessmentId</text>
<text text-anchor="start" x="592.1341" y="-938.8719" font-family="Times,serif" font-size="10.00" fill="#000000">: NUMBER</text>
<polygon fill="none" stroke="#000000" points="534.7806,-907.8719 534.7806,-929.8719 644.7806,-929.8719 644.7806,-907.8719 534.7806,-907.8719"/>
<text text-anchor="start" x="539.7806" y="-915.8719" font-family="Times,serif" font-size="10.00" fill="#000000">text: STRING</text>
<polygon fill="none" stroke="#000000" points="534.7806,-885.8719 534.7806,-907.8719 644.7806,-907.8719 644.7806,-885.8719 534.7806,-885.8719"/>
<text text-anchor="start" x="539.7806" y="-893.8719" font-family="Times,serif" font-size="10.00" fill="#000000">userId: NUMBER</text>
<polygon fill="none" stroke="#000000" points="534.7806,-863.8719 534.7806,-885.8719 644.7806,-885.8719 644.7806,-863.8719 534.7806,-863.8719"/>
<text text-anchor="start" x="539.7806" y="-871.8719" font-family="Times,serif" font-size="10.00" fill="#000000">status: STRING</text>
<polygon fill="none" stroke="#000000" points="534.7806,-841.8719 534.7806,-863.8719 644.7806,-863.8719 644.7806,-841.8719 534.7806,-841.8719"/>
<text text-anchor="start" x="539.7806" y="-849.8719" font-family="Times,serif" font-size="10.00" fill="#000000">createdAt: DATE</text>
<polygon fill="none" stroke="#000000" points="534.7806,-819.8719 534.7806,-841.8719 644.7806,-841.8719 644.7806,-819.8719 534.7806,-819.8719"/>
<text text-anchor="start" x="539.7806" y="-827.8719" font-family="Times,serif" font-size="10.00" fill="#000000">updatedAt: DATE</text>
</g>
<!-- AssessmentModel&#45;&gt;GroupModel -->
<g id="edge4" class="edge">
<title>AssessmentModel&#45;&gt;GroupModel</title>
<path fill="none" stroke="#00cd00" stroke-width=".75" d="M565.1928,-802.1302C566.0782,-805.938 566.9679,-809.764 567.8563,-813.5845"/>
<polygon fill="#00cd00" stroke="#00cd00" stroke-width=".75" points="567.8914,-813.7361 566.6206,-820.1917 568.5709,-816.6581 569.2504,-819.5802 569.2504,-819.5802 569.2504,-819.5802 568.5709,-816.6581 571.8803,-818.9686 567.8914,-813.7361 567.8914,-813.7361"/>
</g>
<!-- CountryModel -->
<g id="node3" class="node">
<title>CountryModel</title>
<polygon fill="#add8e6" stroke="transparent" points="166.396,-289.874 166.396,-311.874 249.396,-311.874 249.396,-289.874 166.396,-289.874"/>
<polygon fill="none" stroke="#000000" points="166.396,-289.874 166.396,-311.874 249.396,-311.874 249.396,-289.874 166.396,-289.874"/>
<text text-anchor="start" x="178.454" y="-298.874" font-family="Times,serif" font-weight="bold" font-size="10.00" fill="#000000">CountryModel</text>
<polygon fill="none" stroke="#000000" points="166.396,-267.874 166.396,-289.874 249.396,-289.874 249.396,-267.874 166.396,-267.874"/>
<text text-anchor="start" x="171.396" y="-276.874" font-family="Times,serif" text-decoration="underline" font-size="10.00" fill="#000000">id</text>
<text text-anchor="start" x="179.175" y="-276.874" font-family="Times,serif" font-size="10.00" fill="#000000">: NUMBER</text>
<polygon fill="none" stroke="#000000" points="166.396,-245.874 166.396,-267.874 249.396,-267.874 249.396,-245.874 166.396,-245.874"/>
<text text-anchor="start" x="171.396" y="-253.874" font-family="Times,serif" font-size="10.00" fill="#000000">name: STRING</text>
<polygon fill="none" stroke="#000000" points="166.396,-223.874 166.396,-245.874 249.396,-245.874 249.396,-223.874 166.396,-223.874"/>
<text text-anchor="start" x="171.396" y="-231.874" font-family="Times,serif" font-size="10.00" fill="#000000">code: STRING</text>
<polygon fill="none" stroke="#000000" points="166.396,-201.874 166.396,-223.874 249.396,-223.874 249.396,-201.874 166.396,-201.874"/>
<text text-anchor="start" x="171.396" y="-209.874" font-family="Times,serif" font-size="10.00" fill="#000000">createdAt: DATE</text>
<polygon fill="none" stroke="#000000" points="166.396,-179.874 166.396,-201.874 249.396,-201.874 249.396,-179.874 166.396,-179.874"/>
<text text-anchor="start" x="171.101" y="-187.874" font-family="Times,serif" font-size="10.00" fill="#000000">updatedAt: DATE</text>
</g>
<!-- FileModel -->
<g id="node4" class="node">
<title>FileModel</title>
<polygon fill="#add8e6" stroke="transparent" points="166.7161,-1237.1031 166.7161,-1259.1031 272.7161,-1259.1031 272.7161,-1237.1031 166.7161,-1237.1031"/>
<polygon fill="none" stroke="#000000" points="166.7161,-1237.1031 166.7161,-1259.1031 272.7161,-1259.1031 272.7161,-1237.1031 166.7161,-1237.1031"/>
<text text-anchor="start" x="198.8846" y="-1246.1031" font-family="Times,serif" font-weight="bold" font-size="10.00" fill="#000000">FileModel</text>
<polygon fill="none" stroke="#000000" points="166.7161,-1215.1031 166.7161,-1237.1031 272.7161,-1237.1031 272.7161,-1215.1031 166.7161,-1215.1031"/>
<text text-anchor="start" x="171.7161" y="-1224.1031" font-family="Times,serif" text-decoration="underline" font-size="10.00" fill="#000000">id</text>
<text text-anchor="start" x="179.4951" y="-1224.1031" font-family="Times,serif" font-size="10.00" fill="#000000">: NUMBER</text>
<polygon fill="none" stroke="#000000" points="166.7161,-1193.1031 166.7161,-1215.1031 272.7161,-1215.1031 272.7161,-1193.1031 166.7161,-1193.1031"/>
<text text-anchor="start" x="171.7161" y="-1202.1031" font-family="Times,serif" font-style="italic" text-decoration="underline" font-size="10.00" fill="#000000">ownerId</text>
<text text-anchor="start" x="205.0321" y="-1202.1031" font-family="Times,serif" font-size="10.00" fill="#000000">: NUMBER</text>
<polygon fill="none" stroke="#000000" points="166.7161,-1171.1031 166.7161,-1193.1031 272.7161,-1193.1031 272.7161,-1171.1031 166.7161,-1171.1031"/>
<text text-anchor="start" x="171.7161" y="-1179.1031" font-family="Times,serif" font-size="10.00" fill="#000000">owner: STRING</text>
<polygon fill="none" stroke="#000000" points="166.7161,-1149.1031 166.7161,-1171.1031 272.7161,-1171.1031 272.7161,-1149.1031 166.7161,-1149.1031"/>
<text text-anchor="start" x="171.5341" y="-1157.1031" font-family="Times,serif" font-size="10.00" fill="#000000">originalName: STRING</text>
<polygon fill="none" stroke="#000000" points="166.7161,-1127.1031 166.7161,-1149.1031 272.7161,-1149.1031 272.7161,-1127.1031 166.7161,-1127.1031"/>
<text text-anchor="start" x="171.7161" y="-1135.1031" font-family="Times,serif" font-size="10.00" fill="#000000">name: STRING</text>
<polygon fill="none" stroke="#000000" points="166.7161,-1105.1031 166.7161,-1127.1031 272.7161,-1127.1031 272.7161,-1105.1031 166.7161,-1105.1031"/>
<text text-anchor="start" x="171.7161" y="-1113.1031" font-family="Times,serif" font-size="10.00" fill="#000000">extension: STRING</text>
<polygon fill="none" stroke="#000000" points="166.7161,-1083.1031 166.7161,-1105.1031 272.7161,-1105.1031 272.7161,-1083.1031 166.7161,-1083.1031"/>
<text text-anchor="start" x="171.7161" y="-1091.1031" font-family="Times,serif" font-size="10.00" fill="#000000">mime: STRING</text>
<polygon fill="none" stroke="#000000" points="166.7161,-1061.1031 166.7161,-1083.1031 272.7161,-1083.1031 272.7161,-1061.1031 166.7161,-1061.1031"/>
<text text-anchor="start" x="171.7161" y="-1069.1031" font-family="Times,serif" font-size="10.00" fill="#000000">status: STRING</text>
<polygon fill="none" stroke="#000000" points="166.7161,-1039.1031 166.7161,-1061.1031 272.7161,-1061.1031 272.7161,-1039.1031 166.7161,-1039.1031"/>
<text text-anchor="start" x="171.7161" y="-1047.1031" font-family="Times,serif" font-size="10.00" fill="#000000">createdAt: DATE</text>
<polygon fill="none" stroke="#000000" points="166.7161,-1017.1031 166.7161,-1039.1031 272.7161,-1039.1031 272.7161,-1017.1031 166.7161,-1017.1031"/>
<text text-anchor="start" x="171.7161" y="-1025.1031" font-family="Times,serif" font-size="10.00" fill="#000000">updatedAt: DATE</text>
</g>
<!-- QuestionModel -->
<g id="node8" class="node">
<title>QuestionModel</title>
<polygon fill="#add8e6" stroke="transparent" points="619.5722,-1247.006 619.5722,-1269.006 708.5722,-1269.006 708.5722,-1247.006 619.5722,-1247.006"/>
<polygon fill="none" stroke="#000000" points="619.5722,-1247.006 619.5722,-1269.006 708.5722,-1269.006 708.5722,-1247.006 619.5722,-1247.006"/>
<text text-anchor="start" x="632.9662" y="-1256.006" font-family="Times,serif" font-weight="bold" font-size="10.00" fill="#000000">QuestionModel</text>
<polygon fill="none" stroke="#000000" points="619.5722,-1225.006 619.5722,-1247.006 708.5722,-1247.006 708.5722,-1225.006 619.5722,-1225.006"/>
<text text-anchor="start" x="624.5722" y="-1234.006" font-family="Times,serif" text-decoration="underline" font-size="10.00" fill="#000000">id</text>
<text text-anchor="start" x="632.3512" y="-1234.006" font-family="Times,serif" font-size="10.00" fill="#000000">: NUMBER</text>
<polygon fill="none" stroke="#000000" points="619.5722,-1203.006 619.5722,-1225.006 708.5722,-1225.006 708.5722,-1203.006 619.5722,-1203.006"/>
<text text-anchor="start" x="624.2167" y="-1212.006" font-family="Times,serif" font-style="italic" text-decoration="underline" font-size="10.00" fill="#000000">groupId</text>
<text text-anchor="start" x="655.8747" y="-1212.006" font-family="Times,serif" font-size="10.00" fill="#000000">: NUMBER</text>
<polygon fill="none" stroke="#000000" points="619.5722,-1181.006 619.5722,-1203.006 708.5722,-1203.006 708.5722,-1181.006 619.5722,-1181.006"/>
<text text-anchor="start" x="624.5722" y="-1189.006" font-family="Times,serif" font-size="10.00" fill="#000000">text: STRING</text>
<polygon fill="none" stroke="#000000" points="619.5722,-1159.006 619.5722,-1181.006 708.5722,-1181.006 708.5722,-1159.006 619.5722,-1159.006"/>
<text text-anchor="start" x="624.5722" y="-1167.006" font-family="Times,serif" font-size="10.00" fill="#000000">userId: NUMBER</text>
<polygon fill="none" stroke="#000000" points="619.5722,-1137.006 619.5722,-1159.006 708.5722,-1159.006 708.5722,-1137.006 619.5722,-1137.006"/>
<text text-anchor="start" x="624.5722" y="-1145.006" font-family="Times,serif" font-size="10.00" fill="#000000">status: STRING</text>
<polygon fill="none" stroke="#000000" points="619.5722,-1115.006 619.5722,-1137.006 708.5722,-1137.006 708.5722,-1115.006 619.5722,-1115.006"/>
<text text-anchor="start" x="624.5722" y="-1123.006" font-family="Times,serif" font-size="10.00" fill="#000000">createdAt: DATE</text>
<polygon fill="none" stroke="#000000" points="619.5722,-1093.006 619.5722,-1115.006 708.5722,-1115.006 708.5722,-1093.006 619.5722,-1093.006"/>
<text text-anchor="start" x="624.5722" y="-1101.006" font-family="Times,serif" font-size="10.00" fill="#000000">updatedAt: DATE</text>
</g>
<!-- GroupModel&#45;&gt;QuestionModel -->
<g id="edge5" class="edge">
<title>GroupModel&#45;&gt;QuestionModel</title>
<path fill="none" stroke="#00cd00" stroke-width=".75" d="M613.6367,-996.1736C621.453,-1025.105 630.1653,-1057.353 638.0966,-1086.7099"/>
<polygon fill="#00cd00" stroke="#00cd00" stroke-width=".75" points="638.1069,-1086.7486 637.0654,-1093.2451 638.8894,-1089.6447 639.6719,-1092.5409 639.6719,-1092.5409 639.6719,-1092.5409 638.8894,-1089.6447 642.2785,-1091.8367 638.1069,-1086.7486 638.1069,-1086.7486"/>
</g>
<!-- IndustryModel -->
<g id="node6" class="node">
<title>IndustryModel</title>
<polygon fill="#add8e6" stroke="transparent" points="913.4671,-438.4391 913.4671,-460.4391 996.4671,-460.4391 996.4671,-438.4391 913.4671,-438.4391"/>
<polygon fill="none" stroke="#000000" points="913.4671,-438.4391 913.4671,-460.4391 996.4671,-460.4391 996.4671,-438.4391 913.4671,-438.4391"/>
<text text-anchor="start" x="925.2506" y="-447.4391" font-family="Times,serif" font-weight="bold" font-size="10.00" fill="#000000">IndustryModel</text>
<polygon fill="none" stroke="#000000" points="913.4671,-416.4391 913.4671,-438.4391 996.4671,-438.4391 996.4671,-416.4391 913.4671,-416.4391"/>
<text text-anchor="start" x="918.4671" y="-425.4391" font-family="Times,serif" text-decoration="underline" font-size="10.00" fill="#000000">id</text>
<text text-anchor="start" x="926.2461" y="-425.4391" font-family="Times,serif" font-size="10.00" fill="#000000">: NUMBER</text>
<polygon fill="none" stroke="#000000" points="913.4671,-394.4391 913.4671,-416.4391 996.4671,-416.4391 996.4671,-394.4391 913.4671,-394.4391"/>
<text text-anchor="start" x="918.4671" y="-402.4391" font-family="Times,serif" font-size="10.00" fill="#000000">name: STRING</text>
<polygon fill="none" stroke="#000000" points="913.4671,-372.4391 913.4671,-394.4391 996.4671,-394.4391 996.4671,-372.4391 913.4671,-372.4391"/>
<text text-anchor="start" x="918.4671" y="-380.4391" font-family="Times,serif" font-size="10.00" fill="#000000">createdAt: DATE</text>
<polygon fill="none" stroke="#000000" points="913.4671,-350.4391 913.4671,-372.4391 996.4671,-372.4391 996.4671,-350.4391 913.4671,-350.4391"/>
<text text-anchor="start" x="918.1721" y="-358.4391" font-family="Times,serif" font-size="10.00" fill="#000000">updatedAt: DATE</text>
</g>
<!-- OrganisationModel -->
<g id="node7" class="node">
<title>OrganisationModel</title>
<polygon fill="#add8e6" stroke="transparent" points="649.5145,-330 649.5145,-352 779.5145,-352 779.5145,-330 649.5145,-330"/>
<polygon fill="none" stroke="#000000" points="649.5145,-330 649.5145,-352 779.5145,-352 779.5145,-330 649.5145,-330"/>
<text text-anchor="start" x="675.635" y="-339" font-family="Times,serif" font-weight="bold" font-size="10.00" fill="#000000">OrganisationModel</text>
<polygon fill="none" stroke="#000000" points="649.5145,-308 649.5145,-330 779.5145,-330 779.5145,-308 649.5145,-308"/>
<text text-anchor="start" x="654.5145" y="-317" font-family="Times,serif" text-decoration="underline" font-size="10.00" fill="#000000">id</text>
<text text-anchor="start" x="662.2935" y="-317" font-family="Times,serif" font-size="10.00" fill="#000000">: NUMBER</text>
<polygon fill="none" stroke="#000000" points="649.5145,-286 649.5145,-308 779.5145,-308 779.5145,-286 649.5145,-286"/>
<text text-anchor="start" x="654.5145" y="-294" font-family="Times,serif" font-size="10.00" fill="#000000">name: STRING</text>
<polygon fill="none" stroke="#000000" points="649.5145,-264 649.5145,-286 779.5145,-286 779.5145,-264 649.5145,-264"/>
<text text-anchor="start" x="654.5145" y="-272" font-family="Times,serif" font-size="10.00" fill="#000000">website: STRING</text>
<polygon fill="none" stroke="#000000" points="649.5145,-242 649.5145,-264 779.5145,-264 779.5145,-242 649.5145,-242"/>
<text text-anchor="start" x="654.5145" y="-250" font-family="Times,serif" font-size="10.00" fill="#000000">entityType: STRING</text>
<polygon fill="none" stroke="#000000" points="649.5145,-220 649.5145,-242 779.5145,-242 779.5145,-220 649.5145,-220"/>
<text text-anchor="start" x="654.394" y="-228" font-family="Times,serif" font-size="10.00" fill="#000000">registeredNumber: NUMBER</text>
<polygon fill="none" stroke="#000000" points="649.5145,-198 649.5145,-220 779.5145,-220 779.5145,-198 649.5145,-198"/>
<text text-anchor="start" x="654.5145" y="-206" font-family="Times,serif" font-size="10.00" fill="#000000">street: STRING</text>
<polygon fill="none" stroke="#000000" points="649.5145,-176 649.5145,-198 779.5145,-198 779.5145,-176 649.5145,-176"/>
<text text-anchor="start" x="654.5145" y="-184" font-family="Times,serif" font-size="10.00" fill="#000000">cityOrTown: STRING</text>
<polygon fill="none" stroke="#000000" points="649.5145,-154 649.5145,-176 779.5145,-176 779.5145,-154 649.5145,-154"/>
<text text-anchor="start" x="654.5145" y="-162" font-family="Times,serif" font-size="10.00" fill="#000000">countryOrState: STRING</text>
<polygon fill="none" stroke="#000000" points="649.5145,-132 649.5145,-154 779.5145,-154 779.5145,-132 649.5145,-132"/>
<text text-anchor="start" x="654.5145" y="-140" font-family="Times,serif" font-size="10.00" fill="#000000">postCode: NUMBER</text>
<polygon fill="none" stroke="#000000" points="649.5145,-110 649.5145,-132 779.5145,-132 779.5145,-110 649.5145,-110"/>
<text text-anchor="start" x="654.5145" y="-118" font-family="Times,serif" font-size="10.00" fill="#000000">size: STRING</text>
<polygon fill="none" stroke="#000000" points="649.5145,-88 649.5145,-110 779.5145,-110 779.5145,-88 649.5145,-88"/>
<text text-anchor="start" x="654.5145" y="-96" font-family="Times,serif" font-size="10.00" fill="#000000">status: STRING</text>
<polygon fill="none" stroke="#000000" points="649.5145,-66 649.5145,-88 779.5145,-88 779.5145,-66 649.5145,-66"/>
<text text-anchor="start" x="654.5145" y="-75" font-family="Times,serif" font-style="italic" text-decoration="underline" font-size="10.00" fill="#000000">countryId</text>
<text text-anchor="start" x="693.3905" y="-75" font-family="Times,serif" font-size="10.00" fill="#000000">: NUMBER</text>
<polygon fill="none" stroke="#000000" points="649.5145,-44 649.5145,-66 779.5145,-66 779.5145,-44 649.5145,-44"/>
<text text-anchor="start" x="654.5145" y="-53" font-family="Times,serif" font-style="italic" text-decoration="underline" font-size="10.00" fill="#000000">industryId</text>
<text text-anchor="start" x="695.6195" y="-53" font-family="Times,serif" font-size="10.00" fill="#000000">: NUMBER</text>
<polygon fill="none" stroke="#000000" points="649.5145,-22 649.5145,-44 779.5145,-44 779.5145,-22 649.5145,-22"/>
<text text-anchor="start" x="654.5145" y="-30" font-family="Times,serif" font-size="10.00" fill="#000000">createdAt: DATE</text>
<polygon fill="none" stroke="#000000" points="649.5145,0 649.5145,-22 779.5145,-22 779.5145,0 649.5145,0"/>
<text text-anchor="start" x="654.5145" y="-8" font-family="Times,serif" font-size="10.00" fill="#000000">updatedAt: DATE</text>
</g>
<!-- OrganisationModel&#45;&gt;CountryModel -->
<g id="edge2" class="edge">
<title>OrganisationModel&#45;&gt;CountryModel</title>
<path fill="none" stroke="#00cd00" stroke-width=".75" d="M643.5204,-185.782C536.0519,-200.5897 335.4433,-228.2308 248.8973,-240.1557"/>
<polygon fill="#00cd00" stroke="#00cd00" stroke-width=".75" points="643.5705,-185.7752 649.8829,-187.6309 646.5424,-185.3657 649.5144,-184.9561 649.5144,-184.9561 649.5144,-184.9561 646.5424,-185.3657 649.1458,-182.2814 643.5705,-185.7752 643.5705,-185.7752"/>
</g>
<!-- OrganisationModel&#45;&gt;IndustryModel -->
<g id="edge1" class="edge">
<title>OrganisationModel&#45;&gt;IndustryModel</title>
<path fill="none" stroke="#00cd00" stroke-width=".75" d="M784.2715,-242.7006C825.8612,-282.4681 877.2752,-331.6293 912.6454,-365.4498"/>
<polygon fill="#00cd00" stroke="#00cd00" stroke-width=".75" points="784.1023,-242.5388 781.6316,-236.4407 781.934,-240.4655 779.7657,-238.3922 779.7657,-238.3922 779.7657,-238.3922 781.934,-240.4655 777.8997,-240.3437 784.1023,-242.5388 784.1023,-242.5388"/>
</g>
<!-- QuestionModel&#45;&gt;AnswerModel -->
<g id="edge6" class="edge">
<title>QuestionModel&#45;&gt;AnswerModel</title>
<path fill="none" stroke="#00cd00" stroke-width=".75" d="M708.0804,-1150.8079C755.865,-1118.3868 831.8509,-1066.8316 883.428,-1031.8373"/>
<polygon fill="#00cd00" stroke="#00cd00" stroke-width=".75" points="883.6884,-1031.6606 890.1694,-1030.5261 886.1709,-1029.9762 888.6535,-1028.2919 888.6535,-1028.2919 888.6535,-1028.2919 886.1709,-1029.9762 887.1375,-1026.0576 883.6884,-1031.6606 883.6884,-1031.6606"/>
</g>
<!-- QuestionModel&#45;&gt;FileModel -->
<g id="edge7" class="edge">
<title>QuestionModel&#45;&gt;FileModel</title>
<path fill="none" stroke="#00cd00" stroke-width=".75" d="M618.9813,-1176.6959C538.5021,-1168.9168 368.9871,-1152.5316 278.9053,-1143.8243"/>
<polygon fill="#00cd00" stroke="#00cd00" stroke-width=".75" points="278.7958,-1143.8138 273.0835,-1140.549 275.8098,-1143.5251 272.8237,-1143.2364 272.8237,-1143.2364 272.8237,-1143.2364 275.8098,-1143.5251 272.5639,-1145.9239 278.7958,-1143.8138 278.7958,-1143.8138"/>
</g>
<!-- TemplateGroupModel -->
<g id="node9" class="node">
<title>TemplateGroupModel</title>
<polygon fill="#add8e6" stroke="transparent" points="165.285,-735.094 165.285,-757.094 265.285,-757.094 265.285,-735.094 165.285,-735.094"/>
<polygon fill="none" stroke="#000000" points="165.285,-735.094 165.285,-757.094 265.285,-757.094 265.285,-735.094 165.285,-735.094"/>
<text text-anchor="start" x="170.576" y="-744.094" font-family="Times,serif" font-weight="bold" font-size="10.00" fill="#000000">TemplateGroupModel</text>
<polygon fill="none" stroke="#000000" points="165.285,-713.094 165.285,-735.094 265.285,-735.094 265.285,-713.094 165.285,-713.094"/>
<text text-anchor="start" x="170.285" y="-722.094" font-family="Times,serif" text-decoration="underline" font-size="10.00" fill="#000000">id</text>
<text text-anchor="start" x="178.064" y="-722.094" font-family="Times,serif" font-size="10.00" fill="#000000">: NUMBER</text>
<polygon fill="none" stroke="#000000" points="165.285,-691.094 165.285,-713.094 265.285,-713.094 265.285,-691.094 165.285,-691.094"/>
<text text-anchor="start" x="169.8775" y="-700.094" font-family="Times,serif" font-style="italic" text-decoration="underline" font-size="10.00" fill="#000000">templateId</text>
<text text-anchor="start" x="212.6395" y="-700.094" font-family="Times,serif" font-size="10.00" fill="#000000">: NUMBER</text>
<polygon fill="none" stroke="#000000" points="165.285,-669.094 165.285,-691.094 265.285,-691.094 265.285,-669.094 165.285,-669.094"/>
<text text-anchor="start" x="170.285" y="-677.094" font-family="Times,serif" font-size="10.00" fill="#000000">text: STRING</text>
<polygon fill="none" stroke="#000000" points="165.285,-647.094 165.285,-669.094 265.285,-669.094 265.285,-647.094 165.285,-647.094"/>
<text text-anchor="start" x="170.285" y="-655.094" font-family="Times,serif" font-size="10.00" fill="#000000">status: STRING</text>
<polygon fill="none" stroke="#000000" points="165.285,-625.094 165.285,-647.094 265.285,-647.094 265.285,-625.094 165.285,-625.094"/>
<text text-anchor="start" x="170.285" y="-633.094" font-family="Times,serif" font-size="10.00" fill="#000000">createdAt: DATE</text>
<polygon fill="none" stroke="#000000" points="165.285,-603.094 165.285,-625.094 265.285,-625.094 265.285,-603.094 165.285,-603.094"/>
<text text-anchor="start" x="170.285" y="-611.094" font-family="Times,serif" font-size="10.00" fill="#000000">updatedAt: DATE</text>
</g>
<!-- TemplateQuestionModel -->
<g id="node11" class="node">
<title>TemplateQuestionModel</title>
<polygon fill="#add8e6" stroke="transparent" points=".5,-780.2488 .5,-802.2488 109.5,-802.2488 109.5,-780.2488 .5,-780.2488"/>
<polygon fill="none" stroke="#000000" points=".5,-780.2488 .5,-802.2488 109.5,-802.2488 109.5,-780.2488 .5,-780.2488"/>
<text text-anchor="start" x="5.0125" y="-789.2488" font-family="Times,serif" font-weight="bold" font-size="10.00" fill="#000000">TemplateQuestionModel</text>
<polygon fill="none" stroke="#000000" points=".5,-758.2488 .5,-780.2488 109.5,-780.2488 109.5,-758.2488 .5,-758.2488"/>
<text text-anchor="start" x="5.5" y="-767.2488" font-family="Times,serif" text-decoration="underline" font-size="10.00" fill="#000000">id</text>
<text text-anchor="start" x="13.279" y="-767.2488" font-family="Times,serif" font-size="10.00" fill="#000000">: NUMBER</text>
<polygon fill="none" stroke="#000000" points=".5,-736.2488 .5,-758.2488 109.5,-758.2488 109.5,-736.2488 .5,-736.2488"/>
<text text-anchor="start" x="5.5" y="-745.2488" font-family="Times,serif" font-style="italic" text-decoration="underline" font-size="10.00" fill="#000000">groupId</text>
<text text-anchor="start" x="37.158" y="-745.2488" font-family="Times,serif" font-size="10.00" fill="#000000">: NUMBER</text>
<polygon fill="none" stroke="#000000" points=".5,-714.2488 .5,-736.2488 109.5,-736.2488 109.5,-714.2488 .5,-714.2488"/>
<text text-anchor="start" x="5.5" y="-722.2488" font-family="Times,serif" font-size="10.00" fill="#000000">text: STRING</text>
<polygon fill="none" stroke="#000000" points=".5,-692.2488 .5,-714.2488 109.5,-714.2488 109.5,-692.2488 .5,-692.2488"/>
<text text-anchor="start" x="5.5" y="-700.2488" font-family="Times,serif" font-size="10.00" fill="#000000">status: STRING</text>
<polygon fill="none" stroke="#000000" points=".5,-670.2488 .5,-692.2488 109.5,-692.2488 109.5,-670.2488 .5,-670.2488"/>
<text text-anchor="start" x="5.5" y="-678.2488" font-family="Times,serif" font-size="10.00" fill="#000000">createdAt: DATE</text>
<polygon fill="none" stroke="#000000" points=".5,-648.2488 .5,-670.2488 109.5,-670.2488 109.5,-648.2488 .5,-648.2488"/>
<text text-anchor="start" x="5.5" y="-656.2488" font-family="Times,serif" font-size="10.00" fill="#000000">updatedAt: DATE</text>
</g>
<!-- TemplateGroupModel&#45;&gt;TemplateQuestionModel -->
<g id="edge8" class="edge">
<title>TemplateGroupModel&#45;&gt;TemplateQuestionModel</title>
<path fill="none" stroke="#00cd00" stroke-width=".75" d="M164.8528,-694.2574C149.1044,-698.6801 131.5661,-703.6056 115.1901,-708.2046"/>
<polygon fill="#00cd00" stroke="#00cd00" stroke-width=".75" points="114.9915,-708.2603 108.4849,-707.2832 112.1032,-709.0715 109.2149,-709.8827 109.2149,-709.8827 109.2149,-709.8827 112.1032,-709.0715 109.945,-712.4821 114.9915,-708.2603 114.9915,-708.2603"/>
</g>
<!-- TemplateModel -->
<g id="node10" class="node">
<title>TemplateModel</title>
<polygon fill="#add8e6" stroke="transparent" points="328.8948,-751.3945 328.8948,-773.3945 411.8948,-773.3945 411.8948,-751.3945 328.8948,-751.3945"/>
<polygon fill="none" stroke="#000000" points="328.8948,-751.3945 328.8948,-773.3945 411.8948,-773.3945 411.8948,-751.3945 328.8948,-751.3945"/>
<text text-anchor="start" x="338.4598" y="-760.3945" font-family="Times,serif" font-weight="bold" font-size="10.00" fill="#000000">TemplateModel</text>
<polygon fill="none" stroke="#000000" points="328.8948,-729.3945 328.8948,-751.3945 411.8948,-751.3945 411.8948,-729.3945 328.8948,-729.3945"/>
<text text-anchor="start" x="333.8948" y="-738.3945" font-family="Times,serif" text-decoration="underline" font-size="10.00" fill="#000000">id</text>
<text text-anchor="start" x="341.6738" y="-738.3945" font-family="Times,serif" font-size="10.00" fill="#000000">: NUMBER</text>
<polygon fill="none" stroke="#000000" points="328.8948,-707.3945 328.8948,-729.3945 411.8948,-729.3945 411.8948,-707.3945 328.8948,-707.3945"/>
<text text-anchor="start" x="333.8948" y="-715.3945" font-family="Times,serif" font-size="10.00" fill="#000000">name: STRING</text>
<polygon fill="none" stroke="#000000" points="328.8948,-685.3945 328.8948,-707.3945 411.8948,-707.3945 411.8948,-685.3945 328.8948,-685.3945"/>
<text text-anchor="start" x="333.8948" y="-693.3945" font-family="Times,serif" font-size="10.00" fill="#000000">status: STRING</text>
<polygon fill="none" stroke="#000000" points="328.8948,-663.3945 328.8948,-685.3945 411.8948,-685.3945 411.8948,-663.3945 328.8948,-663.3945"/>
<text text-anchor="start" x="333.8948" y="-671.3945" font-family="Times,serif" font-size="10.00" fill="#000000">createdAt: DATE</text>
<polygon fill="none" stroke="#000000" points="328.8948,-641.3945 328.8948,-663.3945 411.8948,-663.3945 411.8948,-641.3945 328.8948,-641.3945"/>
<text text-anchor="start" x="333.5998" y="-649.3945" font-family="Times,serif" font-size="10.00" fill="#000000">updatedAt: DATE</text>
</g>
<!-- TemplateModel&#45;&gt;AssessmentModel -->
<g id="edge9" class="edge">
<title>TemplateModel&#45;&gt;AssessmentModel</title>
<path fill="none" stroke="#00cd00" stroke-width=".75" d="M411.7637,-708.9711C434.6691,-709.8336 463.363,-710.9141 488.2238,-711.8502"/>
<polygon fill="#00cd00" stroke="#00cd00" stroke-width=".75" points="488.4601,-711.859 494.3543,-714.783 491.458,-711.972 494.4559,-712.0849 494.4559,-712.0849 494.4559,-712.0849 491.458,-711.972 494.5575,-709.3868 488.4601,-711.859 488.4601,-711.859"/>
</g>
<!-- TemplateModel&#45;&gt;TemplateGroupModel -->
<g id="edge10" class="edge">
<title>TemplateModel&#45;&gt;TemplateGroupModel</title>
<path fill="none" stroke="#00cd00" stroke-width=".75" d="M328.0551,-700.0066C310.7,-696.9421 290.3003,-693.34 271.6571,-690.048"/>
<polygon fill="#00cd00" stroke="#00cd00" stroke-width=".75" points="271.3175,-689.9881 265.8784,-686.2859 268.3632,-689.4664 265.4089,-688.9447 265.4089,-688.9447 265.4089,-688.9447 268.3632,-689.4664 264.9394,-691.6036 271.3175,-689.9881 271.3175,-689.9881"/>
</g>
<!-- UserInfoModel -->
<g id="node12" class="node">
<title>UserInfoModel</title>
<polygon fill="#add8e6" stroke="transparent" points="482.7821,-502.5213 482.7821,-524.5213 597.7821,-524.5213 597.7821,-502.5213 482.7821,-502.5213"/>
<polygon fill="none" stroke="#000000" points="482.7821,-502.5213 482.7821,-524.5213 597.7821,-524.5213 597.7821,-502.5213 482.7821,-502.5213"/>
<text text-anchor="start" x="509.4616" y="-511.5213" font-family="Times,serif" font-weight="bold" font-size="10.00" fill="#000000">UserInfoModel</text>
<polygon fill="none" stroke="#000000" points="482.7821,-480.5213 482.7821,-502.5213 597.7821,-502.5213 597.7821,-480.5213 482.7821,-480.5213"/>
<text text-anchor="start" x="487.7821" y="-489.5213" font-family="Times,serif" text-decoration="underline" font-size="10.00" fill="#000000">id</text>
<text text-anchor="start" x="495.5611" y="-489.5213" font-family="Times,serif" font-size="10.00" fill="#000000">: NUMBER</text>
<polygon fill="none" stroke="#000000" points="482.7821,-458.5213 482.7821,-480.5213 597.7821,-480.5213 597.7821,-458.5213 482.7821,-458.5213"/>
<text text-anchor="start" x="487.7821" y="-467.5213" font-family="Times,serif" font-style="italic" text-decoration="underline" font-size="10.00" fill="#000000">userId</text>
<text text-anchor="start" x="512.7681" y="-467.5213" font-family="Times,serif" font-size="10.00" fill="#000000">: NUMBER</text>
<polygon fill="none" stroke="#000000" points="482.7821,-436.5213 482.7821,-458.5213 597.7821,-458.5213 597.7821,-436.5213 482.7821,-436.5213"/>
<text text-anchor="start" x="487.7821" y="-444.5213" font-family="Times,serif" font-size="10.00" fill="#000000">firstName: STRING</text>
<polygon fill="none" stroke="#000000" points="482.7821,-414.5213 482.7821,-436.5213 597.7821,-436.5213 597.7821,-414.5213 482.7821,-414.5213"/>
<text text-anchor="start" x="487.7821" y="-422.5213" font-family="Times,serif" font-size="10.00" fill="#000000">middleName: STRING</text>
<polygon fill="none" stroke="#000000" points="482.7821,-392.5213 482.7821,-414.5213 597.7821,-414.5213 597.7821,-392.5213 482.7821,-392.5213"/>
<text text-anchor="start" x="487.7821" y="-400.5213" font-family="Times,serif" font-size="10.00" fill="#000000">lastName: STRING</text>
<polygon fill="none" stroke="#000000" points="482.7821,-370.5213 482.7821,-392.5213 597.7821,-392.5213 597.7821,-370.5213 482.7821,-370.5213"/>
<text text-anchor="start" x="487.7821" y="-378.5213" font-family="Times,serif" font-size="10.00" fill="#000000">dateOfBirth: DATE</text>
<polygon fill="none" stroke="#000000" points="482.7821,-348.5213 482.7821,-370.5213 597.7821,-370.5213 597.7821,-348.5213 482.7821,-348.5213"/>
<text text-anchor="start" x="487.3746" y="-357.5213" font-family="Times,serif" font-style="italic" text-decoration="underline" font-size="10.00" fill="#000000">organisationId</text>
<text text-anchor="start" x="545.1366" y="-357.5213" font-family="Times,serif" font-size="10.00" fill="#000000">: NUMBER</text>
<polygon fill="none" stroke="#000000" points="482.7821,-326.5213 482.7821,-348.5213 597.7821,-348.5213 597.7821,-326.5213 482.7821,-326.5213"/>
<text text-anchor="start" x="487.7821" y="-334.5213" font-family="Times,serif" font-size="10.00" fill="#000000">createdAt: DATE</text>
<polygon fill="none" stroke="#000000" points="482.7821,-304.5213 482.7821,-326.5213 597.7821,-326.5213 597.7821,-304.5213 482.7821,-304.5213"/>
<text text-anchor="start" x="487.7821" y="-312.5213" font-family="Times,serif" font-size="10.00" fill="#000000">updatedAt: DATE</text>
</g>
<!-- UserInfoModel&#45;&gt;OrganisationModel -->
<g id="edge3" class="edge">
<title>UserInfoModel&#45;&gt;OrganisationModel</title>
<path fill="none" stroke="#00cd00" stroke-width=".75" d="M601.2022,-330.6788C616.7793,-309.415 633.5666,-286.4992 649.3235,-264.9901"/>
<polygon fill="#00cd00" stroke="#00cd00" stroke-width=".75" points="601.0261,-330.9192 595.3022,-334.1638 599.2532,-333.3393 597.4803,-335.7595 597.4803,-335.7595 597.4803,-335.7595 599.2532,-333.3393 599.6584,-337.3551 601.0261,-330.9192 601.0261,-330.9192"/>
</g>
<!-- UserModel -->
<g id="node13" class="node">
<title>UserModel</title>
<polygon fill="#add8e6" stroke="transparent" points="702.1058,-707.7997 702.1058,-729.7997 791.1058,-729.7997 791.1058,-707.7997 702.1058,-707.7997"/>
<polygon fill="none" stroke="#000000" points="702.1058,-707.7997 702.1058,-729.7997 791.1058,-729.7997 791.1058,-707.7997 702.1058,-707.7997"/>
<text text-anchor="start" x="724.1143" y="-716.7997" font-family="Times,serif" font-weight="bold" font-size="10.00" fill="#000000">UserModel</text>
<polygon fill="none" stroke="#000000" points="702.1058,-685.7997 702.1058,-707.7997 791.1058,-707.7997 791.1058,-685.7997 702.1058,-685.7997"/>
<text text-anchor="start" x="707.1058" y="-694.7997" font-family="Times,serif" text-decoration="underline" font-size="10.00" fill="#000000">id</text>
<text text-anchor="start" x="714.8848" y="-694.7997" font-family="Times,serif" font-size="10.00" fill="#000000">: NUMBER</text>
<polygon fill="none" stroke="#000000" points="702.1058,-663.7997 702.1058,-685.7997 791.1058,-685.7997 791.1058,-663.7997 702.1058,-663.7997"/>
<text text-anchor="start" x="707.1058" y="-671.7997" font-family="Times,serif" font-size="10.00" fill="#000000">email: TEXT</text>
<polygon fill="none" stroke="#000000" points="702.1058,-641.7997 702.1058,-663.7997 791.1058,-663.7997 791.1058,-641.7997 702.1058,-641.7997"/>
<text text-anchor="start" x="707.0318" y="-649.7997" font-family="Times,serif" font-size="10.00" fill="#000000">password: STRING</text>
<polygon fill="none" stroke="#000000" points="702.1058,-619.7997 702.1058,-641.7997 791.1058,-641.7997 791.1058,-619.7997 702.1058,-619.7997"/>
<text text-anchor="start" x="707.1058" y="-627.7997" font-family="Times,serif" font-size="10.00" fill="#000000">role: STRING</text>
<polygon fill="none" stroke="#000000" points="702.1058,-597.7997 702.1058,-619.7997 791.1058,-619.7997 791.1058,-597.7997 702.1058,-597.7997"/>
<text text-anchor="start" x="707.1058" y="-605.7997" font-family="Times,serif" font-size="10.00" fill="#000000">status: STRING</text>
<polygon fill="none" stroke="#000000" points="702.1058,-575.7997 702.1058,-597.7997 791.1058,-597.7997 791.1058,-575.7997 702.1058,-575.7997"/>
<text text-anchor="start" x="707.1058" y="-583.7997" font-family="Times,serif" font-size="10.00" fill="#000000">plan: STRING</text>
<polygon fill="none" stroke="#000000" points="702.1058,-553.7997 702.1058,-575.7997 791.1058,-575.7997 791.1058,-553.7997 702.1058,-553.7997"/>
<text text-anchor="start" x="707.1058" y="-561.7997" font-family="Times,serif" font-size="10.00" fill="#000000">createdAt: DATE</text>
<polygon fill="none" stroke="#000000" points="702.1058,-531.7997 702.1058,-553.7997 791.1058,-553.7997 791.1058,-531.7997 702.1058,-531.7997"/>
<text text-anchor="start" x="707.1058" y="-539.7997" font-family="Times,serif" font-size="10.00" fill="#000000">updatedAt: DATE</text>
</g>
<!-- UserModel&#45;&gt;AssessmentModel -->
<g id="edge11" class="edge">
<title>UserModel&#45;&gt;AssessmentModel</title>
<path fill="none" stroke="#00cd00" stroke-width=".75" d="M701.4062,-649.2594C671.7303,-661.5147 632.5405,-677.6989 600.7757,-690.8169"/>
<polygon fill="#00cd00" stroke="#00cd00" stroke-width=".75" points="600.4806,-690.9387 593.9043,-690.7334 597.7077,-692.0838 594.9349,-693.2289 594.9349,-693.2289 594.9349,-693.2289 597.7077,-692.0838 595.9655,-695.7245 600.4806,-690.9387 600.4806,-690.9387"/>
</g>
<!-- UserModel&#45;&gt;UserInfoModel -->
<g id="edge12" class="edge">
<title>UserModel&#45;&gt;UserInfoModel</title>
<path fill="none" stroke="#00cd00" stroke-width=".75" d="M701.5906,-584.1368C671.1454,-552.2227 630.4956,-509.6115 597.5564,-475.0832"/>
</g>
</g>
</svg>
